<?xml version="1.0" encoding="UTF-8"?>
<svg id="AI_ASPIRATIONS_Rectangular_Logo" data-name="AI ASPIRATIONS Rectangular Logo" xmlns="http://www.w3.org/2000/svg" width="2855.32" height="792" viewBox="0 0 2855.32 792">
  <defs>
    <style>
      .cls-1 {
        fill: #7eb5e4;
      }

      .cls-1, .cls-2, .cls-3 {
        stroke-width: 0px;
      }

      .cls-2 {
        fill: #020302;
      }

      .cls-3 {
        fill: #cb524c;
      }
    </style>
  </defs>
  <g id="AI_ASPIRATIONS_Rectangular_Logo_Group" data-name="AI ASPIRATIONS Rectangular Logo Group">
    <g id="Words_Group" data-name="Words Group">
      <g id="ASPIRATIONS_Group" data-name="ASPIRATIONS Group">
        <path class="cls-2" d="M875.65,784.68c-1.76,0-3.29-.73-4.61-2.2-1.32-1.46-1.97-3.17-1.97-5.12,0-1.22.22-2.56.66-4.03l83.23-237.47c.87-2.43,2.03-4.26,3.45-5.49,1.42-1.22,3.45-1.83,6.09-1.83h11.18c2.63,0,4.66.61,6.09,1.83,1.42,1.22,2.58,3.05,3.45,5.49l83.23,237.47c.44,1.46.66,2.81.66,4.03,0,1.96-.66,3.66-1.97,5.12-1.32,1.46-2.85,2.2-4.6,2.2h-6.58c-2.19,0-3.84-.67-4.93-2.01-1.1-1.34-1.87-2.5-2.3-3.48l-20.4-58.54h-116.45l-20.39,58.54c-.22.98-.94,2.14-2.14,3.48-1.21,1.34-2.91,2.01-5.1,2.01h-6.58ZM917.76,698.69h100.66l-50.33-144.16-50.33,144.16Z"/>
        <path class="cls-2" d="M1171.71,788.34c-17.76,0-32.84-3.18-45.23-9.51-12.39-6.34-21.88-14.51-28.46-24.51-6.58-10-10.09-20.61-10.53-31.83,0-1.95.66-3.66,1.97-5.12,1.32-1.46,2.96-2.2,4.93-2.2h6.58c2.19,0,3.89.73,5.1,2.2,1.2,1.46,1.92,3.18,2.14,5.12.87,6.83,3.62,13.6,8.22,20.31,4.6,6.71,11.4,12.32,20.4,16.83,8.99,4.52,20.61,6.77,34.87,6.77,21.49,0,37.17-4.33,47.04-12.99,9.87-8.66,14.8-20.31,14.8-34.95,0-9.75-2.58-17.62-7.73-23.6-5.15-5.98-12.99-11.34-23.52-16.1-10.53-4.76-24.01-10.06-40.46-15.92-15.57-5.61-28.4-11.4-38.49-17.38-10.09-5.97-17.49-13.23-22.2-21.77-4.72-8.53-7.07-19.51-7.07-32.93,0-12.44,2.96-23.6,8.88-33.48,5.92-9.88,14.53-17.75,25.82-23.6,11.29-5.86,25.05-8.78,41.28-8.78,12.94,0,24.23,1.96,33.88,5.86,9.65,3.9,17.65,9.09,24.01,15.55,6.36,6.47,11.18,13.42,14.47,20.85,3.29,7.44,5.04,14.7,5.26,21.77,0,1.71-.55,3.36-1.64,4.94-1.1,1.59-2.85,2.38-5.26,2.38h-6.58c-1.1,0-2.47-.48-4.11-1.46-1.64-.97-2.69-2.92-3.12-5.85-1.32-12.19-7.07-22.26-17.27-30.19-10.2-7.92-23.41-11.89-39.64-11.89s-29.5,3.54-39.8,10.61c-10.31,7.07-15.46,18.18-15.46,33.3,0,9.76,2.3,17.74,6.91,23.96,4.61,6.22,11.84,11.71,21.71,16.47,9.87,4.76,22.58,9.94,38.16,15.55,16.45,5.85,30.04,11.71,40.79,17.56,10.74,5.86,18.75,12.99,24.01,21.41,5.26,8.42,7.9,19.34,7.9,32.75,0,14.88-3.35,27.5-10.03,37.87-6.69,10.37-16.18,18.3-28.46,23.79-12.28,5.49-26.97,8.23-44.08,8.23Z"/>
        <path class="cls-2" d="M1308.89,784.68c-2.19,0-3.95-.73-5.26-2.2-1.32-1.46-1.97-3.41-1.97-5.86v-239.66c0-2.68.66-4.75,1.97-6.22,1.32-1.46,3.07-2.2,5.26-2.2h79.94c15.35,0,28.67,2.87,39.97,8.6,11.29,5.73,20.07,14.21,26.32,25.43,6.25,11.22,9.38,25.12,9.38,41.71s-3.13,30.5-9.38,41.71c-6.25,11.22-15.02,19.7-26.32,25.43-11.3,5.74-24.62,8.6-39.97,8.6h-66.45v96.59c0,2.44-.66,4.39-1.97,5.86-1.32,1.46-3.18,2.2-5.59,2.2h-5.92ZM1322.37,658.08h64.8c19.08,0,33.28-4.63,42.6-13.9,9.32-9.27,13.98-22.56,13.98-39.88s-4.66-30.61-13.98-39.88c-9.32-9.27-23.52-13.9-42.6-13.9h-64.8v107.57Z"/>
        <path class="cls-2" d="M1515.47,784.68c-2.19,0-3.95-.73-5.26-2.2-1.32-1.46-1.97-3.41-1.97-5.86v-240.03c0-2.44.66-4.39,1.97-5.85,1.32-1.46,3.07-2.2,5.26-2.2h6.25c2.19,0,3.95.73,5.26,2.2,1.32,1.46,1.97,3.42,1.97,5.85v240.03c0,2.44-.66,4.39-1.97,5.86-1.32,1.46-3.07,2.2-5.26,2.2h-6.25Z"/>
        <path class="cls-2" d="M1598.04,784.68c-2.19,0-3.95-.73-5.26-2.2-1.32-1.46-1.97-3.41-1.97-5.86v-239.66c0-2.68.66-4.75,1.97-6.22,1.32-1.46,3.07-2.2,5.26-2.2h76.65c23.03,0,41.39,6.1,55.1,18.29,13.7,12.2,20.56,30.74,20.56,55.62,0,19.52-4.39,35.13-13.16,46.84-8.77,11.71-20.95,19.64-36.51,23.78l52.96,100.25c.66,1.46.99,2.81.99,4.03,0,1.96-.66,3.66-1.97,5.12-1.32,1.46-2.85,2.2-4.6,2.2h-3.95c-3.51,0-6.14-1.03-7.9-3.11-1.76-2.07-3.29-4.33-4.6-6.77l-52.3-98.42h-67.77v100.25c0,2.44-.66,4.39-1.97,5.86-1.32,1.46-3.18,2.2-5.59,2.2h-5.92ZM1611.52,654.42h61.52c19.08,0,33.28-4.32,42.6-12.99,9.32-8.65,13.98-21.64,13.98-38.97s-4.66-30.31-13.98-38.97c-9.32-8.66-23.52-12.99-42.6-12.99h-61.52v103.91Z"/>
        <path class="cls-2" d="M1784.89,784.68c-1.76,0-3.29-.73-4.61-2.2-1.32-1.46-1.97-3.17-1.97-5.12,0-1.22.22-2.56.66-4.03l83.23-237.47c.87-2.43,2.03-4.26,3.45-5.49,1.42-1.22,3.45-1.83,6.09-1.83h11.18c2.63,0,4.66.61,6.09,1.83,1.42,1.22,2.58,3.05,3.45,5.49l83.23,237.47c.44,1.46.66,2.81.66,4.03,0,1.96-.66,3.66-1.97,5.12-1.32,1.46-2.85,2.2-4.6,2.2h-6.58c-2.19,0-3.84-.67-4.93-2.01-1.1-1.34-1.87-2.5-2.3-3.48l-20.4-58.54h-116.45l-20.39,58.54c-.22.98-.94,2.14-2.14,3.48-1.21,1.34-2.91,2.01-5.1,2.01h-6.58ZM1826.99,698.69h100.66l-50.33-144.16-50.33,144.16Z"/>
        <path class="cls-2" d="M2048.05,784.68c-2.19,0-3.95-.73-5.26-2.2-1.32-1.46-1.97-3.41-1.97-5.86v-226.12h-65.13c-2.19,0-3.95-.73-5.26-2.2-1.32-1.46-1.97-3.41-1.97-5.86v-5.49c0-2.68.66-4.75,1.97-6.22,1.32-1.46,3.07-2.2,5.26-2.2h150.66c2.41,0,4.28.73,5.59,2.2,1.32,1.46,1.97,3.54,1.97,6.22v5.49c0,2.44-.66,4.39-1.97,5.86-1.32,1.46-3.18,2.2-5.59,2.2h-64.8v226.12c0,2.44-.66,4.39-1.97,5.86-1.32,1.46-3.18,2.2-5.59,2.2h-5.92Z"/>
        <path class="cls-2" d="M2180.95,784.68c-2.19,0-3.95-.73-5.26-2.2-1.32-1.46-1.97-3.41-1.97-5.86v-240.03c0-2.44.66-4.39,1.97-5.85,1.32-1.46,3.07-2.2,5.26-2.2h6.25c2.19,0,3.95.73,5.26,2.2,1.32,1.46,1.97,3.42,1.97,5.85v240.03c0,2.44-.66,4.39-1.97,5.86-1.32,1.46-3.07,2.2-5.26,2.2h-6.25Z"/>
        <path class="cls-2" d="M2334.24,788.34c-18.21,0-33.67-3.6-46.38-10.79-12.72-7.19-22.48-18.3-29.28-33.3-6.8-15-10.53-33.97-11.18-56.9-.22-10.97-.33-21.22-.33-30.74s.11-19.76.33-30.74c.66-22.68,4.61-41.53,11.84-56.53,7.24-15,17.27-26.16,30.1-33.48,12.83-7.31,27.8-10.97,44.9-10.97s32.07,3.66,44.9,10.97c12.83,7.32,22.91,18.48,30.26,33.48,7.34,15,11.24,33.84,11.68,56.53.44,10.98.66,21.22.66,30.74s-.22,19.76-.66,30.74c-.44,22.93-4.11,41.89-11.02,56.9-6.91,15-16.73,26.1-29.44,33.3-12.72,7.19-28.18,10.79-46.38,10.79ZM2334.24,766.39c18.86,0,34.38-6.34,46.55-19.03,12.17-12.68,18.69-33.3,19.57-61.84.44-10.97.66-20.61.66-28.91s-.22-17.93-.66-28.91c-.44-19.03-3.57-34.51-9.38-46.47-5.81-11.95-13.6-20.67-23.36-26.16-9.76-5.49-20.89-8.23-33.39-8.23s-23.3,2.74-33.06,8.23c-9.76,5.49-17.55,14.21-23.36,26.16-5.81,11.95-9.05,27.44-9.7,46.47-.22,10.98-.33,20.62-.33,28.91s.11,17.93.33,28.91c.87,28.54,7.45,49.16,19.74,61.84,12.28,12.69,27.74,19.03,46.38,19.03Z"/>
        <path class="cls-2" d="M2481.28,784.68c-2.19,0-3.95-.73-5.26-2.2-1.32-1.46-1.97-3.41-1.97-5.86v-239.66c0-2.68.66-4.75,1.97-6.22,1.32-1.46,3.07-2.2,5.26-2.2h6.91c2.19,0,3.83.61,4.93,1.83,1.09,1.22,1.75,2.07,1.97,2.56l121.39,206.37v-202.34c0-2.68.66-4.75,1.97-6.22,1.32-1.46,3.07-2.2,5.26-2.2h5.92c2.41,0,4.28.73,5.59,2.2,1.32,1.46,1.97,3.54,1.97,6.22v239.3c0,2.44-.66,4.45-1.97,6.04-1.32,1.59-3.07,2.38-5.26,2.38h-7.24c-2.19,0-3.78-.61-4.77-1.83-.99-1.22-1.7-2.07-2.14-2.56l-121.06-205.63v201.97c0,2.44-.66,4.39-1.97,5.86-1.32,1.46-3.18,2.2-5.59,2.2h-5.92Z"/>
        <path class="cls-2" d="M2768.13,788.34c-17.76,0-32.84-3.18-45.23-9.51-12.39-6.34-21.88-14.51-28.46-24.51-6.58-10-10.09-20.61-10.53-31.83,0-1.95.66-3.66,1.97-5.12,1.32-1.46,2.96-2.2,4.93-2.2h6.58c2.19,0,3.89.73,5.1,2.2,1.2,1.46,1.92,3.18,2.14,5.12.87,6.83,3.62,13.6,8.22,20.31,4.6,6.71,11.4,12.32,20.4,16.83,8.99,4.52,20.61,6.77,34.87,6.77,21.49,0,37.17-4.33,47.04-12.99,9.87-8.66,14.8-20.31,14.8-34.95,0-9.75-2.58-17.62-7.73-23.6-5.15-5.98-12.99-11.34-23.52-16.1-10.53-4.76-24.01-10.06-40.46-15.92-15.57-5.61-28.4-11.4-38.49-17.38-10.09-5.97-17.49-13.23-22.2-21.77-4.72-8.53-7.07-19.51-7.07-32.93,0-12.44,2.96-23.6,8.88-33.48,5.92-9.88,14.53-17.75,25.82-23.6,11.29-5.86,25.05-8.78,41.28-8.78,12.94,0,24.23,1.96,33.88,5.86,9.65,3.9,17.65,9.09,24.01,15.55,6.36,6.47,11.18,13.42,14.47,20.85,3.29,7.44,5.04,14.7,5.26,21.77,0,1.71-.55,3.36-1.64,4.94-1.1,1.59-2.85,2.38-5.26,2.38h-6.58c-1.1,0-2.47-.48-4.11-1.46-1.64-.97-2.69-2.92-3.12-5.85-1.32-12.19-7.07-22.26-17.27-30.19-10.2-7.92-23.41-11.89-39.64-11.89s-29.5,3.54-39.8,10.61c-10.31,7.07-15.46,18.18-15.46,33.3,0,9.76,2.3,17.74,6.91,23.96,4.61,6.22,11.84,11.71,21.71,16.47,9.87,4.76,22.58,9.94,38.16,15.55,16.45,5.85,30.04,11.71,40.79,17.56,10.74,5.86,18.75,12.99,24.01,21.41,5.26,8.42,7.9,19.34,7.9,32.75,0,14.88-3.35,27.5-10.03,37.87-6.69,10.37-16.18,18.3-28.46,23.79-12.28,5.49-26.97,8.23-44.08,8.23Z"/>
      </g>
      <g id="AI_Group" data-name="AI Group">
        <path class="cls-2" d="M877.44,432.35c-2.9,0-5.51-1.32-7.86-3.98-2.35-2.65-3.52-5.61-3.52-8.88,0-2.04.18-3.87.54-5.51L993.97,21c1.08-4.49,3.34-8.46,6.77-11.94,3.43-3.46,8.22-5.2,14.36-5.2h80.22c6.14,0,10.92,1.74,14.36,5.2,3.43,3.47,5.69,7.45,6.78,11.94l126.83,392.99c.72,1.64,1.08,3.47,1.08,5.51,0,3.27-1.18,6.23-3.52,8.88-2.36,2.66-5.15,3.98-8.4,3.98h-66.67c-5.42,0-9.49-1.53-12.2-4.59-2.71-3.06-4.43-5.82-5.15-8.26l-21.14-62.43h-144.71l-20.6,62.43c-.73,2.45-2.36,5.2-4.88,8.26-2.53,3.06-6.87,4.59-13.01,4.59h-66.67ZM1004.81,268.91h100.81l-50.95-161.6-49.86,161.6Z"/>
        <path class="cls-2" d="M1303.44,432.35c-3.98,0-7.23-1.42-9.76-4.29-2.53-2.85-3.79-6.52-3.79-11.02V19.16c0-4.49,1.26-8.16,3.79-11.02,2.52-2.85,5.78-4.29,9.76-4.29h72.63c3.97,0,7.22,1.44,9.76,4.29,2.52,2.86,3.79,6.53,3.79,11.02v397.88c0,4.49-1.27,8.17-3.79,11.02-2.53,2.86-5.78,4.29-9.76,4.29h-72.63Z"/>
      </g>
    </g>
    <g id="Graphic_Group" data-name="Graphic Group">
      <g id="Stripes_Group" data-name="Stripes Group">
        <path class="cls-3" d="M728.9,757.98V30.36c0-14.75-11.96-26.7-26.7-26.7h-30.04c-14.75,0-26.7,11.95-26.7,26.7v727.61c0,14.75,11.95,26.7,26.7,26.7h30.04c14.74,0,26.7-11.95,26.7-26.7"/>
        <path class="cls-3" d="M575.36,757.98V30.36c0-14.75-11.95-26.7-26.7-26.7h-30.04c-14.75,0-26.7,11.95-26.7,26.7v727.61c0,14.75,11.96,26.7,26.7,26.7h30.04c14.75,0,26.7-11.95,26.7-26.7"/>
        <path class="cls-3" d="M421.83,757.98v-310.4c0-14.75-11.96-26.7-26.7-26.7h-30.04c-14.75,0-26.7,11.96-26.7,26.7v310.4c0,14.75,11.95,26.7,26.7,26.7h30.04c14.74,0,26.7-11.95,26.7-26.7"/>
        <path class="cls-3" d="M256.62,757.98c0,14.75-11.95,26.7-26.7,26.7h-30.04c-14.75,0-26.7-11.95-26.7-26.7v-370.48h83.44v370.48Z"/>
        <path class="cls-3" d="M91.4,757.98v-310.4c0-14.75-11.95-26.7-26.7-26.7h-30.04c-14.74,0-26.7,11.96-26.7,26.7v310.4c0,14.75,11.96,26.7,26.7,26.7h30.04c14.75,0,26.7-11.95,26.7-26.7"/>
      </g>
      <path id="Blue_Path" data-name="Blue Path" class="cls-1" d="M48.17,3.66h330.11c24.05,0,43.55,19.5,43.55,43.55v296.73c0,24.05-19.5,43.55-43.55,43.55h-121.67v-115.57h46.71s-89.68-123.06-89.68-123.06l-89.68,123.06h49.21v115.57H48.17c-24.05,0-43.55-19.5-43.55-43.55V47.21c0-24.05,19.5-43.55,43.55-43.55"/>
    </g>
  </g>
</svg>