<svg width="108" height="90" viewBox="0 0 108 90" fill="none" xmlns="http://www.w3.org/2000/svg">
<g id="seal">
<g id="Group">
<path id="Vector" d="M83.5384 71.8828C83.5384 71.8828 78.5761 70.7956 79.75 67.5073C79.8986 66.9487 72.2048 64.806 71.7644 64.8944C71.3524 64.9529 73.1151 62.605 73.847 62.163C74.4939 61.7811 76.7833 63.9238 80.1019 63.9238C80.132 63.9238 82.5699 57.9042 85.6814 61.4592C86.5916 62.5166 83.5384 71.8828 83.5384 71.8828ZM22.14 71.8245C22.14 71.8245 27.0724 70.7671 25.956 67.4773C25.7508 66.9204 33.4446 64.7777 33.8556 64.8343C34.2958 64.9228 32.5341 62.5449 31.8881 62.133C31.1536 61.7228 28.9517 63.8956 25.5759 63.8956C25.5449 63.8956 23.4898 58.5231 20.4959 63.1921C19.8187 64.3057 22.14 71.8245 22.14 71.8245Z" fill="#C8DCEE"/>
<path id="Vector_2" d="M46.7459 66.1846C46.7459 66.1846 38.7302 71.8824 38.23 78.5192C38.23 78.7544 39.494 78.3725 40.2576 77.9906C40.2868 77.9305 39.6408 79.6631 40.0225 81.7189C40.0225 81.8657 41.284 81.4838 41.9901 80.8368C42.1059 80.7483 41.7258 83.0413 42.6345 84.7738C42.6946 84.8605 44.1628 84.2452 44.6622 83.7166C44.7488 83.598 44.7779 86.5628 46.2772 87.9436C46.4239 88.0602 47.7737 87.21 48.8309 85.6241C48.86 85.5356 49.7113 87.9436 51.7965 89.3525C51.9724 89.4711 54.0576 87.9436 55.35 85.1838C55.35 85.0671 56.8756 87.0347 58.1981 87.4147C58.2565 87.4732 59.1368 86.7694 59.6655 84.038C59.7239 83.863 60.576 84.8018 61.6631 84.9202C61.7798 84.9202 62.5436 83.5378 62.6018 81.2483C62.6018 81.1016 63.7474 81.8936 64.9513 81.7186C65.068 81.7186 65.2749 79.4292 64.8629 77.6083C64.8629 77.4014 65.715 78.1935 66.6838 77.9902C66.8606 77.9902 66.6538 71.0601 57.8444 65.4506C57.6111 65.334 51.7965 68.7107 51.7965 68.7107L46.7459 66.1846Z" fill="#C8DCEE"/>
<path id="Vector_3" d="M45.5119 67.7117C45.5119 67.7117 39.6682 72.1755 38.5244 78.137C38.5244 78.2836 43.3092 77.4316 47.8314 69.1525C47.949 68.9739 47.0385 68.9157 46.8335 68.4772C46.745 68.212 41.9293 74.3182 39.6974 76.5511C39.5507 76.7562 43.6336 70.9999 46.0406 68.387C46.158 68.2404 45.5119 67.7117 45.5119 67.7117Z" fill="#C8DCEE"/>
<path id="Vector_4" d="M43.369 75.7291C43.369 75.7291 41.3429 77.5484 40.7251 77.7834C40.4608 77.9018 40.0216 80.4546 40.315 81.1901C40.4035 81.3651 45.6875 79.8094 49.5053 70.413C49.5945 70.238 48.3598 69.2676 48.2731 69.5025C48.184 69.6811 44.2194 75.0236 41.4899 79.6625C41.4296 79.8094 43.369 75.7291 43.369 75.7291Z" fill="#C8DCEE"/>
<path id="Vector_5" d="M46.0133 77.49C46.0133 77.49 43.516 80.0446 42.4306 80.7199C42.3121 80.7483 42.3414 84.0101 42.8407 84.2735C42.9593 84.3017 49.0362 82.0706 50.8571 70.6485C50.8571 70.5017 50.0933 70.7369 50.0933 70.6485C50.0933 70.5017 46.0131 78.7825 43.9561 81.8939C43.8988 81.984 46.0133 77.49 46.0133 77.49Z" fill="#C8DCEE"/>
<path id="Vector_6" d="M48.9778 78.284C48.9778 78.284 47.6561 80.8087 45.2775 83.2164C45.2484 83.2749 45.1599 86.4746 46.4239 87.5318C46.4523 87.5619 51.6498 84.889 51.6498 71.529C51.6498 71.414 51.328 71.1771 51.328 71.1771C51.328 71.1771 49.0669 80.3683 47.1567 85.3308C47.1276 85.5058 48.9778 78.284 48.9778 78.284Z" fill="#C8DCEE"/>
<path id="Vector_7" d="M51.532 77.1082C51.532 77.1082 51.0034 82.6292 48.9774 85.3022C48.9482 85.3888 50.9742 88.4722 51.9138 88.8822C52.0314 88.9423 54.028 87.3566 54.9677 84.9203C55.0262 84.8018 52.2663 82.1006 51.8543 75.8458C51.8543 75.6407 52.383 84.8602 51.9135 88.3253C51.8844 88.472 51.5891 81.6303 51.5891 79.1641C51.5894 79.0476 51.532 77.1082 51.532 77.1082ZM56.5819 68.9742C56.5819 68.9742 59.3434 76.0793 66.4202 77.6969C66.5068 77.6969 65.3913 70.62 58.6679 66.5381C58.5794 66.4796 58.6378 68.0636 58.1977 68.3289C58.0792 68.359 61.0458 71.4422 64.8342 75.9042C64.8927 76.0227 59.9301 71.0601 57.2289 68.0052C57.2007 67.9489 56.5819 68.9742 56.5819 68.9742Z" fill="#C8DCEE"/>
<path id="Vector_8" d="M60.429 74.8756C60.429 74.8756 62.9836 77.1085 64.481 77.4319C64.5996 77.4319 64.8346 80.6619 64.6277 81.3654C64.5995 81.484 57.8445 80.1049 54.8213 69.6214C54.8213 69.5913 55.6152 70.8855 56.0835 68.9745C56.1118 68.8578 57.9044 72.5862 58.8732 73.2916C59.1084 73.4683 60.8107 76.7265 63.6306 80.1634C63.7173 80.28 60.429 74.8756 60.429 74.8756Z" fill="#C8DCEE"/>
<path id="Vector_9" d="M58.3732 77.6653C58.3732 77.6653 61.1346 80.455 62.2201 80.8369C62.4269 80.927 62.1616 83.4817 61.4281 84.392C61.398 84.4787 55.2032 82.5693 53.5 70.2966C53.5 70.2382 54.2929 71.414 54.7049 70.0032C54.7049 69.9732 55.3502 73.4682 57.523 76.5215C57.6396 76.6682 58.9903 80.8369 60.7529 83.0096C60.8109 83.128 58.3732 77.6653 58.3732 77.6653Z" fill="#C8DCEE"/>
<path id="Vector_10" d="M55.615 78.9009C55.615 78.9009 57.7577 82.5126 59.2551 83.7449C59.3436 83.7732 58.843 86.3278 58.1395 86.975C58.0794 87.0634 51.9141 84.6555 51.9141 71.6474C51.9141 71.5288 52.8537 72.2927 53.2938 70.8254C53.2938 70.7669 53.529 74.0553 55.0264 77.6971C55.0264 77.7837 56.5539 83.8918 57.7578 85.9461C57.8443 86.0644 55.615 78.9009 55.615 78.9009Z" fill="#C8DCEE"/>
<path id="Vector_11" d="M38.0548 36.1463C38.0548 36.1463 36.2048 35.2357 33.9736 35.2357C33.9436 35.2357 33.5918 33.1231 31.5357 31.1837C31.5065 31.1837 32.1526 28.7476 31.6241 26.6614C31.6241 26.6031 42.6053 21.554 19.9677 6.69679C12.6849 1.93776 9.54241 0.528612 7.81003 0.000182313C7.81003 0.000182313 6.34178 2.93651 14.3884 9.95499C14.4468 9.95499 10.3657 9.4548 15.71 14.4472C15.7391 14.5338 11.7163 14.2704 16.3853 18.3241C16.3853 18.3241 12.1565 17.8822 18.3822 22.8464C18.4406 22.903 12.2158 23.1683 18.8223 26.398C19.0283 26.4866 12.5675 27.602 18.8798 29.3928C18.9691 29.4229 14.2108 30.9486 19.8195 32.4761C19.9371 32.5061 15.8275 35.531 21.1117 35.6476C21.2302 35.6476 18.4997 38.584 22.0805 38.0555C22.0805 38.0555 19.7902 41.8724 23.9908 40.0816C23.9908 40.0816 21.9939 44.9858 25.4591 42.6363C25.4591 42.6363 23.844 46.8933 27.6018 44.4572C27.7203 44.4271 26.3095 48.4791 29.657 46.5113C29.7454 46.4831 28.8057 50.4167 31.5362 48.4789C31.6248 48.4205 30.3614 52.3259 34.0616 49.4477C34.1501 49.4194 33.974 53.4714 36.0585 51.4154C36.1177 51.3268 36.2052 54.6169 38.4371 51.4454C38.6409 51.0919 38.0548 36.1463 38.0548 36.1463ZM66.0386 36.1463C66.0386 36.1463 67.918 35.2357 70.1188 35.2357C70.1789 35.2357 70.5608 33.1231 72.5869 31.1837C72.5869 31.1837 71.1179 29.3345 71.6181 27.2784C71.6181 27.2501 70.5892 25.3108 69.6787 23.4615C68.2113 20.5533 69.1785 15.5625 84.0957 6.69661C91.6127 2.29104 94.5191 0.52843 96.3118 0C96.3118 0 97.8092 2.93632 89.7052 9.95481C89.7052 9.95481 93.7874 9.45462 88.4431 14.447C88.4111 14.5336 92.3766 14.2703 87.7359 18.324C87.7359 18.324 91.9664 17.882 85.7399 22.8463C85.7117 22.9029 91.9363 23.1681 85.2997 26.3979C85.1247 26.4864 91.5546 27.6019 85.2113 29.3927C85.1247 29.4227 89.8803 30.9484 84.3309 32.4759C84.1541 32.5059 88.2644 35.5308 83.0101 35.6475C82.8335 35.6475 85.6214 38.5838 82.0696 38.0554C82.0696 38.0554 84.3608 41.8722 80.132 40.0814C80.132 40.0814 82.1281 44.9856 78.6346 42.6361C78.6346 42.6361 80.2787 46.8931 76.4619 44.457C76.4018 44.4269 77.8126 48.4789 74.4943 46.5111C74.4058 46.4829 75.3163 50.4165 72.5267 48.4788C72.4683 48.4204 73.7307 52.3257 70.0321 49.4475C69.972 49.4192 70.0887 53.4712 68.0646 51.4152C68.0045 51.3267 67.9179 54.6168 65.7151 51.4452C65.4499 51.0919 66.0386 36.1463 66.0386 36.1463ZM39.9623 53.8233C39.9623 53.8233 38.7584 54.7038 37.6729 55.2923C36.5283 55.9376 35.2067 56.2611 35.2067 57.025C35.2067 57.1415 32.242 57.9636 31.565 59.8146C31.565 59.8429 31.9177 60.458 31.9177 60.458C31.4182 60.8116 30.5961 61.3986 30.7137 63.1611C30.7137 63.1611 31.6825 63.3945 32.182 63.2477C32.2705 63.2477 31.9468 63.9231 31.9468 64.2765C31.9468 64.3049 33.004 64.4517 33.1508 64.4517C33.1808 64.4517 32.1236 65.4505 32.1236 65.8624C32.1236 65.9208 33.3858 66.2443 33.8561 66.2443C33.8561 66.2443 33.6794 66.4795 33.6794 66.7446C33.6794 66.7446 35.8822 67.1831 38.6718 65.9207C39.2005 65.6873 40.1401 65.4806 40.9021 64.57C41.315 64.1298 43.4875 63.1311 44.3379 63.0444C45.16 63.0144 45.1309 62.2224 45.3067 61.7221C45.4242 61.2521 39.9623 53.8233 39.9623 53.8233ZM64.9814 53.2364C64.9814 53.2364 66.6839 54.4103 67.8295 55.0273C68.945 55.6425 70.3257 55.9378 70.3257 56.6998C70.3257 56.8183 73.2622 57.7005 73.9075 59.5495C73.9075 59.5796 73.6122 60.1948 73.6122 60.1948C74.1124 60.4582 74.8762 61.0754 74.7877 62.8077C74.7877 62.8077 73.7606 63.1312 73.2903 62.9845C73.2621 62.8979 73.5537 63.6599 73.5537 63.9551C73.5537 64.0117 72.5265 64.1885 72.3798 64.1885C72.3213 64.1885 73.3787 65.1591 73.3787 65.5408C73.3787 65.5691 72.1145 65.9509 71.6179 65.9509C71.6179 65.9509 71.8212 66.1561 71.8212 66.4195C71.8212 66.4796 69.5318 66.9481 66.6836 65.7159C66.155 65.4808 65.0978 65.1873 64.3058 64.277C63.9239 63.7767 62.0447 62.7796 61.1925 62.7513C60.3119 62.6629 59.5183 61.5757 59.3716 61.0754C59.2553 60.5767 64.9814 53.2364 64.9814 53.2364Z" fill="#C8DCEE"/>
<path id="Vector_12" d="M59.4022 62.1324C59.4022 62.1324 59.167 65.5692 58.7552 65.716C58.6686 65.7744 58.5801 67.6235 57.698 68.2405C57.6395 68.2706 57.2578 68.2123 57.2012 67.9772C57.1411 67.9489 56.7292 68.8577 56.494 68.7392C56.1723 68.6526 56.0539 68.5058 56.1121 68.4774C56.2007 68.4774 55.5554 69.7962 55.4368 69.8563C55.3201 69.8846 54.8499 69.6211 54.7915 69.2394C54.7615 69.1209 54.7615 70.3567 54.087 70.6201C53.9995 70.6484 53.6176 70.2382 53.6176 70.0614C53.6176 69.973 53.3242 71.4422 52.267 71.5889C51.0922 71.382 50.7395 70.003 50.7395 70.15C50.7395 70.2666 50.1243 70.56 50.0059 70.5018C49.3597 70.2666 49.1246 69.1529 49.0954 69.2678C49.0362 69.503 48.9186 69.6212 48.7135 69.6212C48.4201 69.5912 48.1557 68.6241 48.0382 68.5925C47.9206 68.534 47.8029 68.8877 47.6855 68.8877C47.217 68.8577 47.1278 67.8889 47.0703 67.9772C47.0102 68.2124 46.6593 68.4457 46.5417 68.3873C44.9842 67.3601 45.602 65.4509 45.4844 65.4225C45.0133 65.1873 44.6313 62.2509 44.6313 62.2509L59.4022 62.1324Z" fill="#C8DCEE"/>
<path id="Vector_13" d="M37.4076 36.4396C37.4076 36.4396 35.3534 35.531 33.856 35.531C33.6792 35.531 32.652 33.238 31.1246 31.3021C31.0954 31.2437 31.4772 28.5726 31.2996 26.5146C31.2996 26.398 35.2358 24.1668 33.0039 19.3812C33.0039 19.2927 31.7417 17.09 30.1558 17.2951C29.9499 17.3233 29.7739 18.734 31.2996 19.9664C31.3597 19.9664 29.7448 20.1732 31.0072 21.9358C31.0072 21.9358 29.9809 21.6989 29.5982 21.9058C29.3924 21.9642 29.7449 22.7862 30.3912 23.4314C30.4203 23.4615 29.2457 23.1962 28.7462 23.4031C28.6285 23.4314 29.0105 24.3136 29.9811 24.9589C30.0386 24.9589 29.2457 25.194 29.1872 25.4574C29.1281 25.6041 29.8326 26.4581 30.0384 26.5146C30.0969 26.5146 29.3339 26.5146 29.1279 26.8682C29.0988 26.8964 29.2455 27.5151 29.8323 27.7787C29.8623 27.807 29.2162 28.2773 29.187 28.5726C29.1279 28.6592 29.2455 29.0111 29.598 29.1578C29.6272 29.1878 28.7459 29.7765 28.7459 30.3033C28.7459 30.48 29.187 30.7153 29.598 30.7153C29.7156 30.7153 28.9519 31.5957 29.7739 31.5957C29.8623 31.5957 28.1881 32.1244 28.364 34.1204C28.364 34.2671 29.8623 34.0319 29.9807 33.9152C30.1266 33.8568 29.0694 35.0608 29.3629 36.2064C29.392 36.3815 30.5093 36.1463 30.9779 35.7945C31.0954 35.706 30.361 37.2919 30.7427 38.1139C30.7737 38.2324 32.1234 37.732 33.0631 36.2646C33.0922 36.1461 33.1506 37.0566 33.2973 37.1752C33.4149 37.3219 34.7363 36.9383 34.8248 36.8216C34.9133 36.7032 34.678 38.2024 34.8248 38.5542C34.9423 38.8176 35.9686 38.1723 36.2329 37.9974C36.264 37.9674 36.704 38.8177 36.9083 38.9645C37.0859 39.0827 37.2326 36.8516 37.4076 36.4396ZM36.1462 39.0827C36.1462 39.0827 36.7615 39.4647 36.7331 39.8747C36.7331 40.2567 35.9685 41.2856 34.3252 41.9891C34.2076 42.0191 33.474 40.0816 34.3544 39.0827C34.4428 38.9361 34.7362 39.2295 35.3241 38.9361C35.3532 38.9361 34.5311 41.4907 34.5311 41.4907L36.1462 39.0827Z" fill="#C8DCEE"/>
<path id="Vector_14" d="M33.9136 37.7927C33.9136 37.7927 34.2955 37.4391 34.2955 37.821C34.2354 38.2029 33.6787 39.3465 32.0345 39.9937C31.9169 40.022 31.2991 38.3797 32.7099 37.3508C32.7983 37.3225 32.534 37.821 33.15 37.5576C33.18 37.5276 32.2413 39.5252 32.2413 39.5252L33.9136 37.7927ZM34.9415 42.1363C34.9415 42.1363 35.235 42.0196 35.235 42.3732C35.2058 42.7832 34.6171 43.929 33.0313 44.5741C32.8855 44.6041 32.2693 42.8716 33.0313 41.6678C33.1798 41.491 33.4141 40.5223 33.8251 41.7262L33.209 44.0757L34.9415 42.1363Z" fill="#C8DCEE"/>
<path id="Vector_15" d="M32.2996 40.5222C32.2996 40.5222 33.0925 40.2869 33.0925 40.6407C33.0634 41.0508 32.388 41.9013 30.743 42.5766C30.5963 42.6366 30.2735 40.8439 30.9198 39.7003C30.9782 39.6402 31.3892 39.2 31.5359 39.7285L30.9198 42.1081L32.2996 40.5222ZM30.4787 38.6712C30.4787 38.6712 30.8021 38.5545 30.8021 38.878C30.7739 39.3182 30.2144 40.464 28.5703 41.109C28.4526 41.139 27.8667 39.8184 29.5982 37.4388C29.6566 37.2921 30.3911 35.9414 30.2144 37.7323L28.746 40.6104L30.4787 38.6712ZM28.9813 36.5569C28.9813 36.5569 29.3339 36.4402 29.2456 36.8521C29.1871 37.204 27.924 38.8497 26.2207 39.3183C26.074 39.3466 26.074 37.4389 28.0416 35.2963C28.1301 35.1495 29.6566 34.4141 28.6285 35.7064L26.6909 38.5845L28.9813 36.5569Z" fill="#C8DCEE"/>
<path id="Vector_16" d="M28.4522 41.5206C28.4522 41.5206 28.8048 41.372 28.7455 41.754C28.7165 42.1358 28.1294 43.9584 25.7507 44.7788C25.6331 44.8089 25.1629 43.5466 26.9838 40.5819C28.3345 38.4958 28.0993 38.761 27.866 40.8436L26.22 44.1938L28.4522 41.5206ZM30.7733 43.1931C30.7733 43.1931 31.4177 42.8713 31.4177 43.2832C31.3886 43.6332 30.509 45.836 28.0994 46.6881C27.9836 46.7164 27.455 45.4842 29.0691 42.3126C29.6269 41.2253 30.0964 39.9046 29.9804 42.8713L28.3637 46.1012L30.7733 43.1931ZM32.6517 44.9857C32.6517 44.9857 33.4146 44.6904 33.1803 44.9857C32.916 45.3075 32.5341 47.5403 30.1555 48.5373C30.0963 48.5974 29.5093 47.0117 31.4177 44.3404C31.9172 43.6332 32.5633 42.6362 32.0347 44.7789L30.3905 47.9805L32.6517 44.9857ZM34.5309 46.5114C34.5309 46.5114 35.2062 48.479 32.0638 50.0665C32.0054 50.1532 31.5061 48.5975 33.3853 45.9262C34.1783 44.8089 34.4426 44.1618 33.9431 46.3063L32.299 49.5378L34.5309 46.5114ZM36.7612 41.169C36.7612 41.169 34.5602 44.1938 35.0887 46.3947C35.1178 46.6299 36.5277 45.9262 36.7612 45.3375C36.7612 45.3375 36.7036 44.6905 36.7329 44.0752C36.7612 43.8401 35.3822 46.0729 35.3822 46.0729L36.7329 42.1358L36.7612 41.169ZM35.7039 47.0116C35.7039 47.0116 35.3238 46.9515 35.1178 47.2449C34.9711 47.5102 34.2073 49.1259 34.9711 51.4738C35.0002 51.6806 35.9991 51.0637 35.9682 49.8879C35.94 49.4194 35.3238 50.7099 35.3238 50.7099L35.7039 47.0116ZM36.7036 46.3363C36.7036 46.3363 36.1168 48.4205 36.4685 50.1813C36.4967 50.3299 37.2322 50.0664 37.203 49.0658C37.1438 48.5372 36.761 49.2426 36.761 49.2426L36.7036 46.3363ZM37.5257 50.2115L36.9078 52.0625V50.7101C36.9078 50.7101 36.5279 50.5952 36.5279 50.7702C36.5279 50.8287 36.3502 51.7975 36.8212 52.4728C36.8504 52.5029 37.996 51.7974 37.9076 51.474C37.8785 51.2988 37.5257 50.2115 37.5257 50.2115ZM26.191 40.5218C26.191 40.5218 26.3377 40.3466 26.3086 40.7286C26.2794 41.1086 25.6624 42.1959 23.99 42.7828C23.8724 42.8111 23.3722 41.4321 25.163 39.1992C25.2807 39.0542 25.8401 39.2293 25.8975 39.7579L24.2234 42.3126L26.191 40.5218ZM25.8975 37.4386C25.8975 37.4386 25.6917 37.7922 25.5757 38.2024C25.5156 38.5843 23.7257 40.0817 21.964 40.0817C21.8155 40.0817 21.5512 38.1141 24.6936 36.6467C25.0162 36.5282 27.5417 35.4127 25.1939 37.1753L22.5218 39.3181L25.8975 37.4386Z" fill="#C8DCEE"/>
<path id="Vector_17" d="M24.4878 36.0281C24.3721 36.4101 22.4618 38.1143 20.6719 37.5856C20.5542 37.5574 20.5542 35.8815 23.7834 34.5326C24.0193 34.4742 25.4274 34.1507 24.2235 35.0029L21.3472 37.0854C21.3472 37.0853 24.6054 35.6479 24.4878 36.0281Z" fill="#C8DCEE"/>
<path id="Vector_18" d="M24.0481 33.4752C26.5734 32.8582 20.5831 36.5282 18.9105 34.6791C18.9105 34.6791 18.1468 33.6518 21.7295 32.1244C21.9647 32.066 23.0802 31.3606 22.4624 32.9465L19.6728 34.3855C19.6725 34.3855 23.5485 33.5334 24.0481 33.4752ZM27.9533 33.6518C27.9533 33.6518 28.0418 34.2953 27.9533 34.7373C27.8667 35.1192 26.8961 35.7646 25.1344 35.7646C24.9876 35.7646 24.5482 33.4168 28.1884 32.2411C28.4527 32.1827 25.663 35.0026 25.663 35.0026L27.9533 33.6518ZM28.4818 30.9205C28.4818 30.9205 28.7461 30.7153 28.7461 31.1256C28.7171 31.3308 28.4818 31.9477 26.8086 31.4775C26.691 31.4492 26.8377 29.8916 28.4236 29.9217C28.4527 29.9217 27.2781 31.214 27.2781 31.214L28.4818 30.9205Z" fill="#C8DCEE"/>
<path id="Vector_19" d="M26.1339 31.8594C28.6284 31.2141 24.8116 34.0321 23.1374 32.5063C23.1374 32.5063 22.844 31.3608 25.6921 30.6855C25.8979 30.6554 26.6026 30.4202 26.2207 31.1256L23.8729 32.2129C23.8726 32.2129 25.6628 31.9779 26.1339 31.8594ZM23.2548 29.9801C23.2548 29.9801 23.49 29.5399 22.6395 29.5399C21.729 29.5399 18.5575 29.3932 17.5286 30.9206C17.5286 30.949 19.9072 33.4169 24.2828 30.5671L18.1464 30.9206L23.2548 29.9801ZM23.4616 28.3077C23.4616 28.3077 23.7542 28.7479 22.8438 28.8064C20.2009 29.1582 17.8823 29.2164 16.6784 27.8075C16.6784 27.7792 18.6459 25.87 23.2548 27.5441L17.9115 27.7793L23.4616 28.3077ZM22.6087 25.9865C22.6087 25.9865 22.9906 26.7803 22.111 26.6618C19.4389 26.3683 16.9134 25.518 16.1498 23.8721C16.1498 23.8137 18.7927 22.5815 21.6117 24.4891L17.4422 23.8721L22.6087 25.9865ZM22.1403 23.0801C22.1403 23.0801 23.4618 24.6942 21.9644 24.0508C19.4391 22.9618 15.8272 20.8792 15.4746 18.9698C15.4746 18.9098 17.8825 18.0593 22.7865 22.3181L16.2072 19.3818L22.1403 23.0801ZM22.6395 17.8241C22.6395 17.8241 20.0257 16.7086 18.8793 17.0905C18.8218 17.0905 20.1725 20.9356 25.0766 22.7283C25.0766 22.7283 24.0478 20.879 19.7323 17.7075C19.6722 17.6774 21.0539 18.0893 22.8438 19.1163L22.6395 17.8241ZM27.748 28.7761C27.748 28.7761 25.6919 26.8686 23.6658 29.1881C23.5191 29.3048 25.6334 31.184 28.0705 29.3932C28.3057 29.2164 24.6055 29.158 24.6055 29.158C24.6055 29.158 25.4691 28.8557 26.0445 28.7761C26.704 28.6843 27.748 28.7761 27.748 28.7761ZM27.1602 25.8998C27.1602 25.8998 26.1339 25.7832 25.8095 26.3683C25.751 26.5451 25.3118 25.7231 23.9902 25.9582C23.7259 25.9866 25.6919 26.3402 26.0445 27.3691C26.1912 27.8075 23.4616 27.0437 22.9905 25.8699C22.8437 25.3412 25.7803 25.1078 27.1602 25.8998Z" fill="#C8DCEE"/>
<path id="Vector_20" d="M27.7474 26.6333C27.7474 26.6333 26.9262 26.1047 26.3976 26.5148C26.1333 26.6615 26.5434 27.9838 28.7162 28.2474C29.0688 28.2774 29.0688 27.7488 28.8338 27.6906C28.687 27.6305 27.8058 27.5154 27.1905 26.9268C27.1596 26.9267 27.7474 26.6333 27.7474 26.6333ZM28.0991 26.2796C27.8057 26.0744 27.6006 25.7228 27.7473 25.5177C27.8658 25.371 28.2167 25.401 28.5694 25.6362C28.8337 25.8395 29.0094 26.2213 28.8919 26.3681C28.7452 26.5148 28.4227 26.4866 28.0991 26.2796ZM28.4809 23.6685C28.4809 23.6685 28.7452 24.5472 28.9805 24.7258C29.2156 24.9291 28.7162 25.2226 28.0408 24.8125C27.3364 24.3422 25.9556 23.697 26.4258 22.9332C26.8368 22.286 28.4809 23.5501 28.4809 23.6685ZM26.0147 23.49C26.0147 23.49 26.0147 23.8135 26.1333 24.0787C26.1908 24.2254 25.3979 23.4618 23.9896 23.5785C23.7538 23.5785 25.6913 24.2538 26.4549 25.0759C26.8368 25.3711 23.2542 24.8125 22.9033 23.1965C22.7858 22.6998 24.6359 22.6998 26.0147 23.49ZM26.3083 19.5282C26.3083 19.5282 25.8088 19.6448 25.9556 20.1735C25.9556 20.3786 25.076 18.9694 23.8721 18.646C23.8721 18.646 23.9295 19.4681 27.3079 22.4044C27.3079 22.4044 23.8429 22.4044 23.2542 18.1455C23.2542 18.1175 25.2803 18.059 26.3083 19.5282Z" fill="#C8DCEE"/>
<path id="Vector_21" d="M29.4803 21.4359C29.4803 21.4359 29.1868 21.3776 29.1868 21.6428C29.1868 21.7895 28.1296 20.6421 27.4552 20.6421C27.4242 20.6421 28.9517 21.7895 29.1868 22.6397C29.1868 22.6998 26.4554 22.1712 26.573 20.025C26.5729 19.9102 27.806 19.7918 29.4803 21.4359ZM29.832 18.7646C29.832 18.7646 30.0963 19.2349 29.9807 19.4099C29.9497 19.5851 29.1868 18.1459 28.4815 17.9426C28.4523 17.9426 30.1556 20.0569 30.0964 21.1707C30.0964 21.2008 27.1601 19.3498 27.3085 17.0604C27.3084 16.9137 28.7166 16.7086 29.832 18.7646ZM30.4783 16.7952C30.4783 16.7952 29.9497 16.5619 29.6563 16.7952C29.6271 16.8553 29.0694 15.8565 28.5699 15.798C28.364 15.7698 29.5095 17.0602 29.3628 17.2954C29.2452 17.5607 27.9529 16.4733 27.5419 14.8875C27.5418 14.8292 28.7457 14.5341 30.4783 16.7952Z" fill="#C8DCEE"/>
<path id="Vector_22" d="M29.2746 14.7709C29.2746 14.7709 26.8376 11.716 19.5857 7.04707C17.0003 5.37461 15.6504 4.37577 11.952 2.46662C11.3924 2.1748 11.1281 4.0825 20.6722 11.4811C20.6722 11.4811 21.2299 10.8942 21.9336 11.1876C21.9646 11.1876 14.886 5.60814 13.7996 4.22923C13.6246 4.02412 22.4933 9.95542 23.7545 11.2177C24.1371 11.6294 28.2175 14.6242 29.2746 14.7709ZM30.6554 17.7657C30.6554 17.7657 30.8605 18.7345 31.8594 19.585C31.8594 19.5849 31.2422 17.7657 30.6554 17.7657ZM31.0955 20.6721C31.0955 20.6721 31.0955 21.2608 31.8593 21.876C31.8594 21.876 31.6533 20.642 31.0955 20.6721ZM29.8916 22.318C29.8916 22.318 30.0384 22.6399 30.9196 22.9333C30.9197 22.9333 30.3911 22.0228 29.8916 22.318ZM29.4806 23.7854C29.4806 23.7854 29.5098 24.0507 30.2142 24.314C30.2143 24.314 29.981 23.5502 29.4806 23.7854ZM31.0072 32.8581C31.0072 32.8581 29.7157 32.8882 29.7157 32.3595C29.7157 32.3295 29.0988 32.7696 28.9519 33.5334C28.9519 33.6201 29.4805 33.0349 29.7157 33.0349C29.95 33.0349 30.8604 33.0048 31.0072 32.8581ZM31.8594 34.7674C31.8594 34.7674 30.7138 34.6207 30.7138 34.0921C30.7138 34.032 30.0969 34.7674 29.8917 35.5594C29.8917 35.648 30.4203 34.7674 30.7138 34.7674C30.9197 34.7674 31.6241 34.8841 31.8594 34.7674ZM32.8281 36.0597C32.8281 36.0597 31.7418 36.2931 31.565 35.7944C31.565 35.7644 31.5359 36.5281 31.8002 36.4397C32.0351 36.3815 32.7106 36.2931 32.8281 36.0597ZM67.124 36.2931C67.124 36.2931 68.7966 35.5311 70.2355 35.5311C70.4423 35.5311 71.4394 33.2382 72.9686 31.3022C72.9969 31.2439 71.7647 29.2762 71.9397 27.2202C71.9397 27.1317 71.176 25.1942 70.0888 23.4316C69.325 22.1711 69.325 20.6136 70.4141 18.7061C70.4424 18.6461 70.9709 17.3237 73.9357 17.2953C74.1409 17.2953 74.3193 18.7343 72.8502 19.9667C72.7902 19.9667 74.3193 20.1734 73.0855 21.9361C73.0855 21.9361 74.1127 21.6993 74.5228 21.9061C74.7014 21.9645 74.4061 22.7865 73.6723 23.4316C73.6723 23.4617 74.8178 23.1965 75.3765 23.4034C75.4631 23.4316 75.1397 24.3139 74.1125 24.9592C74.1125 24.9592 74.8178 25.1944 74.9946 25.4578C75.023 25.6045 74.2592 26.4585 74.1125 26.515C74.0258 26.515 74.7577 26.515 74.9946 26.8686C75.023 26.8968 74.8761 27.5155 74.2892 27.7791C74.2592 27.8074 74.9045 28.2777 74.9946 28.573C74.9946 28.6596 74.8178 29.0115 74.5544 29.1582C74.5226 29.1882 75.3765 29.777 75.3765 30.3038C75.3765 30.4804 74.9946 30.7157 74.5544 30.7157C74.436 30.7157 75.1697 31.5961 74.3193 31.5961C74.2592 31.5961 75.9334 32.1247 75.7583 34.1208C75.7583 34.2674 74.229 34.0323 74.1123 33.9156C73.9938 33.8572 75.051 35.0612 74.7011 36.2068C74.6691 36.3819 73.5536 36.1467 73.1152 35.7948C72.9966 35.7064 73.7304 37.2922 73.4085 38.1142C73.3785 38.2328 71.9677 37.7324 71.0891 36.265C71.0006 36.1465 70.9706 37.057 70.8239 37.1755C70.6771 37.3222 69.3565 36.9387 69.2964 36.822C69.2098 36.7035 69.4431 38.2028 69.3247 38.5546C69.2097 38.818 68.1526 38.1727 67.8873 37.9978C67.7989 37.9678 67.7989 38.7013 67.5639 38.8499C67.4458 38.9362 67.3009 36.7033 67.124 36.2931ZM68.0046 39.0829C68.0046 39.0829 67.7712 39.493 67.7712 39.9049C67.7995 40.2869 68.1813 41.2857 69.8254 41.9892C69.944 42.0193 70.6193 40.0817 69.7369 39.0829C69.6503 38.9362 69.4152 39.2296 68.7964 38.9362C68.7681 38.9362 69.5902 41.4908 69.5902 41.4908L68.0046 39.0829Z" fill="#C8DCEE"/>
<path id="Vector_23" d="M70.2071 37.7927C70.2071 37.7927 69.8252 37.4391 69.8536 37.821C69.8536 38.2029 70.4423 39.3465 72.0864 39.9937C72.205 40.022 72.7899 38.3797 71.3529 37.3508C71.2644 37.3225 71.5862 37.821 71.001 37.5576C70.9709 37.5276 71.8515 39.5252 71.8515 39.5252L70.2071 37.7927ZM69.2099 42.1363C69.2099 42.1363 68.8281 42.0196 68.8864 42.3732C68.8864 42.7832 69.4433 43.929 71.0893 44.5741C71.2043 44.6041 71.8212 42.8716 71.0893 41.6678C70.9707 41.491 70.6773 40.5223 70.2353 41.7262L70.8823 44.0757L69.2099 42.1363Z" fill="#C8DCEE"/>
<path id="Vector_24" d="M71.7639 40.5222C71.7639 40.5222 71.0001 40.2869 71.0567 40.6407C71.0567 41.0508 71.7639 41.9013 73.4081 42.5766C73.5247 42.6366 73.8766 40.8439 73.1428 39.7003C73.1428 39.6402 72.7327 39.2 72.5861 39.7285L73.2313 42.1081L71.7639 40.5222ZM73.6431 38.6712C73.6431 38.6712 73.2895 38.5545 73.3496 38.878C73.3496 39.3182 73.9065 40.464 75.5224 41.109C75.6675 41.139 76.2259 39.8184 74.5536 37.4388C74.4351 37.2921 73.6714 35.9414 73.9067 37.7323L75.3156 40.6104L73.6431 38.6712ZM75.1687 36.5569C75.1687 36.5569 74.7868 36.4402 74.8169 36.8521C74.9035 37.204 76.1976 38.8497 77.9284 39.3183C78.0469 39.3466 78.0751 37.4389 76.0791 35.2963C75.9606 35.1495 74.435 34.4141 75.4622 35.7064L77.4298 38.5845L75.1687 36.5569Z" fill="#C8DCEE"/>
<path id="Vector_25" d="M75.6688 41.5209C75.6688 41.5209 75.3169 41.3723 75.3169 41.7542C75.377 42.1361 75.9621 43.9586 78.37 44.7791C78.5167 44.8091 78.9587 43.5469 77.0777 40.5821C75.8155 38.496 75.9621 38.7612 76.2273 40.8438L77.9298 44.1941L75.6688 41.5209ZM73.351 43.1933C73.351 43.1933 72.7041 42.8716 72.7341 43.2835C72.7624 43.6335 73.6127 45.8363 76.0223 46.6884C76.1691 46.7166 76.6676 45.4845 75.0517 42.3129C74.4949 41.2255 74.0264 39.9049 74.1412 42.8716L75.7872 46.1015L73.351 43.1933ZM71.5 44.986C71.5 44.986 70.708 44.6906 70.9413 44.986C71.1765 45.3078 71.6184 47.5406 73.9361 48.5376C74.0546 48.5977 74.6415 47.012 72.734 44.3407C72.2338 43.6335 71.5866 42.6365 72.0871 44.7792L73.673 47.9808L71.5 44.986ZM69.5625 46.5116C69.5625 46.5116 68.9155 48.4793 72.0871 50.0668C72.1456 50.1534 72.5874 48.5977 70.7083 45.9264C69.9445 44.8091 69.651 44.1621 70.1797 46.3065L71.8221 49.5381L69.5625 46.5116ZM67.7717 41.3724C67.7717 41.3724 69.5325 44.1941 68.9756 46.395C68.9456 46.6302 68.005 46.2199 67.7416 45.6915C67.7416 45.6915 67.8001 44.9861 67.7717 44.4274C67.7416 44.1039 68.7104 46.0734 68.7104 46.0734L67.7717 42.3131V41.3724ZM68.417 47.0119C68.417 47.0119 68.8289 46.9518 68.9756 47.2452C69.1789 47.5105 69.9144 49.1262 69.1789 51.4741C69.0622 51.6809 68.1216 51.0639 68.1817 49.8881C68.1817 49.4196 68.8287 50.7102 68.8287 50.7102L68.417 47.0119ZM67.6831 46.5116C67.6831 46.5116 68.005 48.421 67.6531 50.1818C67.6531 50.3304 66.9177 50.3886 67.0078 49.3597C67.0078 48.7729 67.3596 49.243 67.3596 49.243L67.6831 46.5116ZM66.801 50.4169L67.1545 52.0629L67.1829 50.7105C67.1829 50.7105 67.5647 50.5955 67.5647 50.7706C67.5647 50.829 67.7716 51.7977 67.3013 52.4731C67.2713 52.5031 66.3608 52.033 66.4208 51.7093C66.4793 51.5342 66.801 50.4169 66.801 50.4169ZM77.9599 40.522C77.9599 40.522 77.7248 40.3469 77.7548 40.7289C77.8132 41.1089 78.4884 42.1962 80.1326 42.783C80.2794 42.8114 80.7496 41.4324 78.8986 39.1995C78.8421 39.0545 78.2233 39.2296 78.2233 39.7582L79.8993 42.3129L77.9599 40.522ZM78.2233 37.4389C78.2233 37.4389 78.4301 37.7924 78.5168 38.2027C78.6052 38.5845 80.396 40.082 82.1604 40.082C82.3054 40.082 82.5705 38.1143 79.3707 36.647C79.1338 36.5285 76.551 35.413 78.8705 37.1756L81.63 39.3184L78.2233 37.4389ZM79.6623 36.0281C79.7809 36.4101 81.6884 38.1143 83.4509 37.5856C83.5675 37.5574 83.5393 35.8815 80.3376 34.5326C80.0457 34.4742 78.7235 34.1507 79.9557 35.0029L82.8038 37.0854C82.8039 37.0853 79.4874 35.6479 79.6623 36.0281Z" fill="#C8DCEE"/>
<path id="Vector_26" d="M80.0455 33.4752C77.5775 32.8582 83.4788 36.5282 85.1829 34.6791C85.1829 34.6791 85.9467 33.6518 82.3934 32.1244C82.16 32.066 81.0427 31.3606 81.6598 32.9465L84.4778 34.3855C84.4776 34.3855 80.5423 33.5334 80.0455 33.4752ZM76.1986 33.6518C76.1986 33.6518 76.0518 34.2953 76.1986 34.7373C76.2871 35.1192 77.2258 35.7646 78.9865 35.7646C79.1333 35.7646 79.5152 33.4168 75.9335 32.2411C75.6683 32.1827 78.4298 35.0026 78.4298 35.0026L76.1986 33.6518ZM75.64 30.9205C75.64 30.9205 75.3165 30.7153 75.3766 31.1256C75.3766 31.3308 75.6684 31.9477 77.3425 31.4775C77.4592 31.4492 77.3124 29.8916 75.7585 29.9217C75.6985 29.9217 76.9024 31.214 76.9024 31.214L75.64 30.9205Z" fill="#C8DCEE"/>
<path id="Vector_27" d="M77.9874 31.8594C75.4627 31.2141 79.2796 34.0321 80.9838 32.5063C80.9838 32.5063 81.2773 31.3608 78.4292 30.6855C78.2224 30.6554 77.4905 30.4202 77.9289 31.1256L80.2784 32.2129C80.2785 32.2129 78.4876 31.9779 77.9874 31.8594ZM80.8655 29.9801C80.8655 29.9801 80.6021 29.5399 81.5124 29.5399C82.3345 29.5399 85.5645 29.3932 86.5332 30.9206C86.5917 30.949 84.1837 33.4169 79.8383 30.5671L85.9746 30.9206L80.8655 29.9801ZM80.6603 28.3077C80.6603 28.3077 80.3951 28.7479 81.2472 28.8064C83.9486 29.1582 86.268 29.2164 87.4136 27.8075C87.472 27.7792 85.5061 25.87 80.8653 27.5441L86.2096 27.7793L80.6603 28.3077ZM81.5409 25.9865C81.5409 25.9865 81.1307 26.7803 82.011 26.6618C84.6824 26.3683 87.1502 25.518 87.9723 23.8721C88.0006 23.8137 85.3293 22.5815 82.5095 24.4891L86.6498 23.8721L81.5409 25.9865ZM82.011 23.0801C82.011 23.0801 80.6603 24.6942 82.1878 24.0508C84.6824 22.9618 88.2958 20.8792 88.676 18.9698C88.676 18.9098 86.2399 18.0593 81.2775 22.3181L87.9724 19.3818L82.011 23.0801ZM81.5124 17.8241C81.5124 17.8241 84.0953 16.7086 85.2108 17.0905C85.2992 17.0905 83.9486 20.9356 79.0745 22.7283C79.0745 22.7283 80.0132 20.879 84.3604 17.7075C84.4771 17.6774 83.0681 18.0893 81.2772 19.1163L81.5124 17.8241ZM76.3433 28.7761C76.3433 28.7761 78.3693 26.8686 80.4835 29.1881C80.542 29.3048 78.516 31.184 76.0515 29.3932C75.8446 29.2164 79.4864 29.158 79.4864 29.158C79.4864 29.158 78.6397 28.8575 78.0756 28.7761C77.4092 28.6807 76.3433 28.7761 76.3433 28.7761ZM76.9902 25.8998C76.9902 25.8998 78.0475 25.7832 78.2524 26.3683C78.3409 26.5451 78.8093 25.7231 80.1317 25.9582C80.3951 25.9866 78.3691 26.3402 78.0756 27.3691C77.959 27.8075 80.6303 27.0437 81.1023 25.8699C81.2774 25.3412 78.3409 25.1078 76.9902 25.8998Z" fill="#C8DCEE"/>
<path id="Vector_28" d="M76.3438 26.6333C76.3438 26.6333 77.1659 26.1047 77.7246 26.5148C78.0481 26.6615 77.606 27.9838 75.3768 28.2474C75.0834 28.2774 75.0834 27.7488 75.2583 27.6906C75.4333 27.6305 76.3438 27.5154 76.9625 26.9268L76.3438 26.6333ZM76.022 26.2796C76.3154 26.0744 76.4622 25.7228 76.3438 25.5177C76.2272 25.371 75.8452 25.401 75.5801 25.6362C75.2583 25.8395 75.1399 26.2213 75.2583 26.3681C75.3767 26.5148 75.6986 26.4866 76.022 26.2796ZM75.6685 23.6685C75.6685 23.6685 75.3767 24.5472 75.1398 24.7258C74.9047 24.9291 75.3767 25.2226 76.052 24.8125C76.7839 24.3422 78.1947 23.697 77.6945 22.9332C77.3126 22.286 75.6685 23.5501 75.6685 23.6685ZM78.1346 23.49C78.1346 23.49 78.1064 23.8135 78.048 24.0787C77.9595 24.2254 78.7234 23.4618 80.1022 23.5785C80.3957 23.5785 78.4298 24.2538 77.606 25.0759C77.2259 25.3711 80.8661 24.8125 81.1895 23.1965C81.2779 22.6998 79.4871 22.6998 78.1346 23.49ZM77.7546 19.5282C77.7546 19.5282 78.2532 19.6448 78.1947 20.1735C78.1347 20.3786 79.0752 18.9694 80.249 18.646C80.279 18.646 80.1623 19.4681 76.814 22.4044C76.814 22.4044 80.279 22.4044 80.8961 18.1455C80.8961 18.1175 78.8418 18.059 77.7546 19.5282Z" fill="#C8DCEE"/>
<path id="Vector_29" d="M74.67 21.4358C74.67 21.4358 74.9953 21.3774 74.9953 21.6427C74.9953 21.7894 75.934 20.642 76.6094 20.642C76.6679 20.642 75.1705 21.7894 74.9953 22.6396C74.9953 22.6997 77.6066 22.1711 77.5782 20.0249C77.5782 19.9101 76.3442 19.7917 74.67 21.4358ZM74.2898 18.7645C74.2898 18.7645 74.0547 19.2348 74.1131 19.4098C74.1414 19.585 74.9952 18.1458 75.6405 17.9425C75.6688 17.9425 73.9363 20.0568 74.0547 21.1706C74.0547 21.2007 76.9628 19.3497 76.8143 17.0603C76.8143 16.9136 75.4054 16.7085 74.2898 18.7645ZM71.7334 17.2371C71.7334 17.2371 74.1414 16.5617 74.4365 16.7951C74.4948 16.8552 75.0517 15.8564 75.5237 15.7979C75.7871 15.7696 74.6115 17.0601 74.7017 17.2953C74.8184 17.5606 76.4342 15.9446 76.8444 14.3305C76.8444 14.3007 73.6728 15.2094 71.7334 17.2371Z" fill="#C8DCEE"/>
<path id="Vector_30" d="M76.5498 16.4733C76.5498 16.4733 77.0485 15.5627 76.99 15.0059C76.99 14.9174 80.8652 11.1872 82.7745 11.5691C83.3914 11.7158 81.894 14.6806 77.0766 18.5275C77.0484 18.5275 77.3719 17.8822 77.3419 17.442C77.3119 17.1787 82.1275 12.2163 82.1275 12.2163L76.5498 16.4733ZM85.7393 16.6783C85.7393 16.6783 85.9745 16.8551 85.9461 17.0903C85.886 17.2955 87.2668 15.8563 88.6174 15.6514C88.8827 15.5913 85.5926 18.0592 84.9172 19.2029C84.6821 19.5283 89.5279 17.0602 89.4996 15.4461C89.4996 14.9175 87.3851 14.7991 85.7393 16.6783ZM82.0692 16.3265C82.0692 16.3265 87.3534 12.0976 88.0605 11.334C88.4105 11.0122 89.793 10.3368 90.555 10.4535C90.8503 10.4835 91.2321 12.0093 86.3863 15.4159C86.0929 15.5911 84.8004 16.5615 83.685 16.5314C83.4781 16.5314 88.9107 12.5979 89.8797 11.0704C89.9681 10.8353 87.767 12.3327 85.2407 14.242C84.9456 14.4473 82.6562 16.1798 82.0692 16.3265ZM77.9287 18.5276C77.9287 18.5276 81.3937 15.9164 82.9212 13.1267C83.0379 12.9199 92.3758 4.75754 94.5185 1.90946C94.5485 1.82103 93.1396 2.85001 92.7294 3.23181C92.7294 3.23181 93.1395 2.43789 92.9928 2.02777C92.9928 1.96767 95.0469 0.823819 95.9291 0.588841C96.0758 0.558789 96.3977 3.64184 89.1759 9.66149C88.9106 9.86668 84.5954 13.5367 83.7732 14.242C82.8328 14.9459 80.1315 17.7072 77.9287 18.5276Z" fill="#C8DCEE"/>
<path id="Vector_31" d="M73.4968 15.1811C73.4968 15.1811 77.2252 11.716 84.5354 7.04707C87.1201 5.37461 88.5008 4.37577 92.1708 2.46662C92.7295 2.1748 92.9929 4.0825 83.4197 11.4811C83.4197 11.4811 82.8329 10.8942 82.1876 11.1876C82.1593 11.1876 89.2645 5.60814 90.3215 4.22923C90.4683 4.02412 82.3343 9.72026 81.0418 11.0126C80.6301 11.3943 74.5539 15.0062 73.4968 15.1811ZM73.4968 17.7657C73.4968 17.7657 73.29 18.7345 72.2611 19.585C72.261 19.5849 72.9081 17.7657 73.4968 17.7657ZM73.0248 20.6721C73.0248 20.6721 73.0248 21.2608 72.2611 21.876C72.261 21.876 72.4678 20.642 73.0248 20.6721ZM74.2287 22.318C74.2287 22.318 74.112 22.6399 73.2316 22.9333C73.2317 22.9333 73.6717 22.0228 74.2287 22.318ZM74.6405 23.7854C74.6405 23.7854 74.6105 24.0507 73.9351 24.314C73.9351 24.314 74.1403 23.5502 74.6405 23.7854ZM73.0849 32.8581C73.0849 32.8581 74.4056 32.8882 74.4056 32.3595C74.4056 32.3295 75.0508 32.7696 75.1693 33.5334C75.1693 33.6201 74.6407 33.0349 74.4056 33.0349C74.1403 33.0349 73.2899 33.0048 73.0849 32.8581ZM72.3211 34.7674C72.3211 34.7674 73.4083 34.6207 73.4083 34.0921C73.4083 34.032 74.0537 34.7674 74.1721 35.5595C74.1721 35.648 73.6435 34.7674 73.4083 34.7674C73.1431 34.7674 72.4678 34.8841 72.3211 34.7674ZM71.2356 36.0597C71.2356 36.0597 72.3511 36.2931 72.4962 35.7944C72.4962 35.7644 72.5263 36.5281 72.3211 36.4397C72.1142 36.3815 71.3523 36.2931 71.2356 36.0597ZM39.1116 54.9991C39.1116 54.9991 38.5248 55.1141 38.378 55.6143C38.347 55.6744 38.8757 55.8796 39.4043 55.6143C39.5226 55.5259 39.1116 54.9991 39.1116 54.9991ZM38.0543 56.0545C38.0543 56.0545 36.2325 55.7893 36.1458 56.8183C36.1168 57.2583 38.0543 56.0545 38.0543 56.0545ZM35.94 57.4069C34.9712 57.2583 32.1816 58.9043 32.299 59.6963C32.299 59.8431 32.8858 59.3144 33.6787 59.1076C34.6776 58.9043 36.2324 57.4653 35.94 57.4069ZM39.5817 55.9961C39.1689 56.1429 37.4674 56.9933 36.6454 57.5217C36.1458 57.817 35.3822 58.9607 34.1783 59.5795C32.916 60.1363 36.7329 59.9614 37.3499 59.0509C37.585 58.669 39.5226 56.9931 40.0794 56.818C40.0794 56.818 38.4362 57.2582 35.0004 59.4893C34.9712 59.4893 37.5256 57.0532 39.6683 56.2311C39.7869 56.1712 39.5817 55.9961 39.5817 55.9961Z" fill="#C8DCEE"/>
<path id="Vector_32" d="M33.6506 59.4897C33.6506 59.4897 33.2686 60.0784 33.4454 60.6371C33.4454 60.7237 32.4465 61.1057 32.1239 61.8977C32.1239 61.9578 32.9168 61.6042 34.1499 60.8404C34.9136 60.3437 35.3247 60.4303 36.3818 60.1085C36.3818 60.1085 35.969 60.5186 35.7047 61.0756C35.4714 61.6343 33.2686 62.8664 31.3002 62.6631C31.3001 62.6629 31.0076 61.4591 33.6506 59.4897ZM38.5546 60.9871C38.5546 60.9871 37.204 61.2524 36.1176 61.2524C36.0866 61.2524 35.2071 62.223 34.6786 62.3397C34.1792 62.5163 38.3787 63.9235 38.5546 60.9871ZM40.638 57.9039C40.638 57.9039 40.2871 57.7006 40.2871 57.3186C40.2871 57.3186 38.2902 58.3158 37.8501 59.1679C37.3799 60.0484 36.8794 60.3435 36.5869 60.7237C36.5285 60.7538 37.9968 61.2224 41.5484 59.3148C41.9303 59.108 41.0198 58.5511 40.9623 58.4627C40.9332 58.346 39.0229 59.9301 37.5265 60.2253C37.4975 60.2251 40.638 57.9039 40.638 57.9039Z" fill="#C8DCEE"/>
<path id="Vector_33" d="M41.608 59.8151C41.608 59.8151 40.0221 60.4905 39.1118 60.8404C38.936 60.9005 39.1118 61.9578 38.4939 62.4263C37.8495 62.985 41.0193 62.8082 42.3118 60.1953C42.6051 59.4899 40.7259 61.5159 39.9047 61.5159C39.8153 61.5158 41.608 59.8151 41.608 59.8151ZM34.8246 63.1015C34.8246 63.1015 34.4136 63.0449 34.0608 62.7515C33.9433 62.6048 32.9162 63.1316 32.6519 63.7486C32.6218 63.7768 33.9433 64.3355 34.8246 63.1015ZM36.528 63.2801C36.528 63.2801 35.8817 63.4834 35.5884 63.3667C35.4398 63.2801 34.7363 64.1305 34.3252 64.2773C34.2076 64.3054 35.8216 65.0994 36.528 63.2801ZM34.9421 65.0409C34.9421 65.0409 34.2959 65.0994 33.7673 64.7174C33.6789 64.659 33.2971 65.1876 32.8277 65.3927C32.7703 65.4228 33.9142 66.038 34.9421 65.0409ZM37.5851 64.9524C37.5851 64.9524 36.8789 65.069 36.4971 64.9524C36.322 64.9223 34.9715 65.5977 34.6178 66.2165C34.6177 66.2448 36.8505 66.7451 37.5851 64.9524Z" fill="#C8DCEE"/>
<path id="Vector_34" d="M39.1112 62.9845C39.1112 62.9845 38.2891 63.2479 37.5253 63.1011C37.3785 63.0446 37.2319 63.8649 36.3806 64.3933C36.3497 64.4234 39.3169 64.9219 40.4327 62.8659C40.5794 62.6042 38.5243 64.0415 37.467 64.0415C37.4069 64.0417 38.875 63.2797 39.1112 62.9845ZM40.1391 64.3051C40.1391 64.3051 39.1685 64.717 38.3464 64.717C38.2288 64.717 38.1422 65.3924 37.672 65.8025C37.6428 65.8626 39.7865 65.0689 40.1391 64.3051ZM42.6337 60.6933C42.6337 60.6933 41.4006 62.3394 41.0186 62.5443C40.901 62.6328 41.0186 63.3664 40.3151 63.895C40.2567 63.9551 41.2257 64.6587 43.1332 61.4588C43.34 61.0753 42.5764 62.1624 42.0478 62.2792C41.9292 62.3393 42.5473 61.4872 42.6045 60.8401C42.7219 60.1948 42.6337 60.6933 42.6337 60.6933ZM43.5732 61.6037C43.5732 61.6037 43.3974 61.8971 42.8396 62.7511C42.8114 62.8077 43.8375 62.4258 43.9861 62.1624C44.162 61.8971 43.5732 61.6037 43.5732 61.6037ZM65.9193 54.382C65.9193 54.382 67.2699 54.9106 67.6235 55.4091C67.6235 55.4676 66.1544 55.2624 65.6559 54.9991C65.509 54.9106 65.9193 54.382 65.9193 54.382ZM67.4449 55.7326C67.4449 55.7326 69.2677 55.4975 69.356 56.5547C69.4144 56.9366 67.4449 55.7326 67.4449 55.7326ZM69.5612 57.1416C70.4998 56.9063 73.2895 58.5789 73.2313 59.3444C73.1428 59.5495 72.6426 58.9908 71.8205 58.8158C70.7933 58.5789 69.2959 57.1716 69.5612 57.1416ZM65.4489 55.4091C65.8591 55.5559 67.7402 56.1428 68.8273 57.2C69.2675 57.5819 70.1179 58.669 71.3519 59.226C72.586 59.8429 68.7672 59.6962 68.152 58.7258C67.9168 58.4039 65.6558 56.4364 65.0971 56.2897C65.0971 56.2897 66.5061 56.8784 69.9712 59.0794C69.9712 59.0794 67.5633 56.6714 65.3907 55.7892C65.3306 55.7608 65.4489 55.4091 65.4489 55.4091Z" fill="#C8DCEE"/>
<path id="Vector_35" d="M71.8508 59.1976C71.8508 59.1976 72.4961 60.048 71.4388 60.048C71.3822 60.048 73.0848 60.8118 73.4083 61.6038C73.4083 61.6038 72.5863 61.2819 71.3822 60.5183C70.5884 60.0781 70.1783 60.1364 69.061 59.7545C69.061 59.7545 69.5312 60.2247 69.7964 60.8118C70.0316 61.3404 72.2609 62.6044 74.1719 62.3976C74.2286 62.3975 74.4937 61.105 71.8508 59.1976ZM66.9166 60.7233C66.9166 60.7233 68.3273 60.9586 69.3562 60.9586C69.4147 60.9586 70.325 61.8973 70.8236 62.044C71.3522 62.1623 67.1535 63.6597 66.9166 60.7233ZM64.3921 57.5217C64.3921 57.5217 64.8924 56.9931 64.8924 56.6431C64.8924 56.6431 67.2419 58.022 67.682 58.9041C68.1522 59.7262 68.5925 60.078 68.9442 60.3715C68.9742 60.43 67.3001 60.6933 63.7466 58.7856C63.4231 58.6105 64.07 58.0218 64.0985 57.9352C64.1268 57.8167 66.096 59.3441 67.5635 59.696C67.6239 59.6961 64.3921 57.5217 64.3921 57.5217Z" fill="#C8DCEE"/>
<path id="Vector_36" d="M64.0711 59.4896C64.0711 59.4896 65.51 60.2251 66.3886 60.5185C66.5353 60.5769 66.3886 61.604 67.0356 62.1326C67.6526 62.6328 64.0992 62.3394 63.1021 59.5798C62.8669 58.9044 64.7745 61.2223 65.5966 61.2223C65.6568 61.2222 64.0711 59.4896 64.0711 59.4896ZM70.7076 62.7798C70.7076 62.7798 71.1177 62.7514 71.3829 62.4262C71.5862 62.2795 72.5268 62.7798 72.8785 63.4269C72.8786 63.4833 71.558 64.0419 70.7076 62.7798ZM68.9751 62.9847C68.9751 62.9847 69.5903 63.1615 69.9439 63.0448C70.0606 63.0147 70.7359 63.8086 71.2044 63.9553C71.2645 64.0119 69.6504 64.8339 68.9751 62.9847ZM70.5892 64.7173C70.5892 64.7173 71.2044 64.8339 71.733 64.4239C71.8515 64.3354 72.2333 64.894 72.6435 65.0408C72.7619 65.0691 71.5862 65.7161 70.5892 64.7173ZM67.918 64.6589C67.918 64.6589 68.5933 64.8056 68.9752 64.6589C69.2104 64.6305 70.5611 65.3058 70.8245 65.9511C70.8827 65.9795 68.6816 66.4197 67.918 64.6589ZM66.4206 62.6628C66.4206 62.6628 67.1825 62.8981 67.918 62.7514C68.1531 62.7194 68.2998 63.5734 69.0618 64.1303C69.1503 64.1303 66.1255 64.6305 65.0982 62.5443C64.9515 62.2791 67.0076 63.7483 68.0345 63.7483C68.1212 63.7485 66.6256 62.9847 66.4206 62.6628ZM65.3917 64.0119C65.3917 64.0119 66.3605 64.4239 67.1543 64.4239C67.301 64.4239 67.301 65.0692 67.7997 65.4811C67.8879 65.541 65.7451 64.8056 65.3917 64.0119ZM62.8087 59.8732C62.8087 59.8732 64.0993 62.0441 64.4812 62.2511C64.6279 62.3396 64.4812 63.045 65.1565 63.63C65.2751 63.6901 63.4841 64.0419 62.1617 60.5185C61.9566 60.195 62.9255 61.8692 63.454 62.0159C63.599 62.0442 62.8371 61.0188 62.7787 60.3718C62.6019 59.7265 62.8087 59.8732 62.8087 59.8732ZM61.7798 60.987C61.7798 60.987 62.045 61.604 62.6019 62.4862C62.6604 62.5163 61.0461 62.2228 60.8693 61.9876C60.6943 61.6624 61.7798 60.987 61.7798 60.987ZM45.1309 63.0147C45.1309 63.0147 45.4843 65.6877 46.5416 66.0377C46.6283 66.0678 46.8059 64.6589 46.6592 64.3051C46.5416 63.895 46.3057 63.865 46.1306 63.6298C46.0705 63.5732 46.3949 65.5974 46.3057 65.5974C46.2774 65.5974 45.6888 63.4831 45.6595 63.3664C45.6595 63.2481 45.1309 63.0147 45.1309 63.0147ZM47.0702 64.3938C47.0702 64.3938 46.6874 66.5966 47.4502 66.7452C47.7145 66.8017 47.9205 65.1877 47.8913 65.0409C47.8321 64.9224 47.9205 64.9525 47.7737 65.0127C47.5986 65.0693 47.4211 66.3634 47.4211 66.3634C47.4211 66.4199 47.2744 64.834 47.1568 64.5706C47.1276 64.5405 47.0702 64.3938 47.0702 64.3938ZM49.4772 65.9795C49.4772 65.9795 49.2137 68.2405 50.3867 68.3591C50.5043 68.3591 50.8278 67.4485 50.651 66.713C50.622 66.5964 50.651 66.538 50.5043 66.5663C50.3285 66.6264 50.2711 68.0957 50.2711 68.0957C50.2711 68.0957 49.7424 66.4197 49.7114 66.1846C49.7113 65.9513 49.4772 65.9795 49.4772 65.9795ZM58.8433 63.5734C58.8433 63.5734 58.7849 65.7161 57.7279 66.098C57.6394 66.098 57.2577 65.5978 57.8764 64.3053V65.5694C57.8764 65.7745 58.345 64.1304 58.345 63.9553C58.3732 63.8651 58.8433 63.5734 58.8433 63.5734ZM57.3477 64.7774C57.3477 64.7774 57.2576 66.7132 56.4938 66.92C56.4372 66.9484 55.9069 66.9484 56.3188 65.4511C56.347 65.3926 56.3771 65.9513 56.4654 66.5666C56.4937 66.8017 56.819 65.4811 56.8755 65.2158C56.8758 65.0125 57.3477 64.7774 57.3477 64.7774ZM54.558 66.5663C54.558 66.5663 54.4112 68.5924 53.5582 68.6525C53.4998 68.6525 53.1763 68.5924 53.2648 67.2416C53.2648 67.095 53.4406 67.0666 53.6174 67.1251C53.7641 67.1834 53.5582 68.2123 53.5582 68.0957C53.6174 68.0637 54.0577 67.095 54.0868 66.8316C54.0868 66.5965 54.558 66.5663 54.558 66.5663Z" fill="#C8DCEE"/>
<path id="Vector_37" d="M45.6885 65.774C45.6885 65.774 45.6885 67.9485 46.6591 67.9769C47.3034 67.9769 46.8058 66.1842 46.7748 66.156C46.6591 65.9508 46.6591 66.5661 46.6591 66.5661L46.6281 67.7417C46.5696 67.7417 46.1305 66.2443 46.1305 66.2443C45.8662 66.2445 45.6885 65.774 45.6885 65.774ZM47.1859 66.8597C47.1859 66.8597 47.2168 68.3589 47.7145 68.5057C47.9203 68.5923 48.0379 66.9783 47.9496 66.8315C47.8913 66.6848 47.7145 67.1834 47.7145 67.1834C47.7145 67.1834 47.8321 68.1239 47.803 68.1239C47.7739 68.1239 47.5678 67.9773 47.5095 67.1252C47.5093 66.948 47.1859 66.8597 47.1859 66.8597ZM49.3594 67.8585C49.3594 67.8585 49.2136 69.8846 50.0056 70.178C50.2399 70.2665 50.7685 70.1196 50.6218 68.5339C50.6218 68.3872 50.2399 68.6524 50.2399 68.6524L50.0931 69.8564C50.0931 69.8846 49.7113 69.5028 49.8288 68.3873C49.8287 68.3588 49.3594 67.8585 49.3594 67.8585ZM51.1504 66.8314C51.1504 66.8314 50.6508 68.7389 52.1492 69.416C52.2958 69.4745 52.9421 68.9158 53.0003 67.36C53.0003 67.2132 52.2668 67.6234 52.2668 67.7419C52.2668 67.7702 52.1492 69.0926 52.1492 69.0926C52.1492 69.1209 51.914 68.0053 51.8548 67.36C51.8548 67.0665 51.1504 66.8314 51.1504 66.8314Z" fill="#C8DCEE"/>
<path id="Vector_38" d="M51.0037 68.8275C51.0037 68.8275 50.6218 70.6484 52.1182 71.3237C52.2669 71.3822 53.529 71.4139 53.0296 68.8275C53.0296 68.6242 53.1471 69.4745 52.5601 69.6214C52.5318 69.6496 52.1491 71.0002 52.2366 71.0002C52.2366 71.0002 52.0024 70.0615 52.0024 69.6495L51.0037 68.8275ZM48.2741 65.1874C48.2741 65.1874 47.8913 67.4484 48.7134 67.6235C48.9185 67.6836 49.1245 66.0677 49.0953 65.951C49.067 65.8024 49.1828 65.6876 49.0361 65.7158C48.8603 65.8024 48.596 67.3599 48.596 67.3599C48.596 67.3882 48.6561 65.6557 48.5385 65.4224C48.5383 65.3925 48.2741 65.1874 48.2741 65.1874ZM55.8485 65.8026C55.8485 65.8026 55.8485 67.4485 55.0547 67.6836C54.968 67.7119 54.4394 67.7702 54.9079 66.3029C54.9079 66.2163 55.0264 66.6263 55.1731 67.2415C55.2032 67.4768 55.4084 66.3629 55.4366 66.1562C55.4366 65.9212 55.8485 65.8026 55.8485 65.8026Z" fill="#C8DCEE"/>
<path id="Vector_39" d="M48.1851 67.6835C48.1851 67.6835 48.2143 69.1208 48.7138 69.2675C48.949 69.2976 49.2424 67.7419 49.1833 67.5668C49.0957 67.3882 48.8607 67.8886 48.8607 67.8886C48.8607 67.8886 48.7432 69.0041 48.714 69.0041C48.714 69.0041 48.5964 68.8274 48.5673 67.9487C48.5671 67.7701 48.1851 67.6835 48.1851 67.6835ZM54.675 67.8586C54.675 67.8586 54.675 70.4433 54.0288 70.2666C53.6178 70.1198 53.2943 68.8876 53.4119 68.8876C53.6762 68.9743 53.8229 68.8876 53.8229 68.8876C53.9114 68.8876 54.0288 69.8564 54.0288 69.7963C54.058 69.7681 54.3797 68.7109 54.3797 68.5341C54.4116 68.3589 54.675 67.8586 54.675 67.8586ZM55.8489 67.1249C55.8489 67.1249 55.9956 69.4744 55.2902 69.5027C55.2337 69.5027 54.7917 69.0342 54.8217 67.9487C54.8217 67.7701 54.8217 68.0053 54.9685 68.0638C55.0869 68.1239 55.3203 69.2677 55.3203 69.2093C55.3503 69.2093 55.437 67.9487 55.5255 67.7703C55.6722 67.5067 55.8489 67.1249 55.8489 67.1249ZM57.0529 66.7131C57.0529 66.7131 56.9945 68.4457 56.466 68.4773C56.3776 68.4773 56.0541 68.0955 56.0842 67.2417C56.0842 67.125 56.2008 67.3018 56.3776 67.3018C56.466 67.3301 56.466 68.329 56.466 68.2705C56.4944 68.2405 56.6729 67.2133 56.7013 67.095C56.8196 66.9198 57.0529 66.7131 57.0529 66.7131ZM58.3736 66.1844C58.3736 66.1844 58.3452 68.0053 57.7283 68.0053C57.6982 68.0053 57.3162 67.6835 57.3482 66.7448C57.3482 66.6262 57.4348 66.2162 57.64 66.2162C57.7285 66.3028 57.7285 67.8586 57.7585 67.8302C57.7585 67.8302 57.9919 66.8013 58.0803 66.6847C58.2267 66.4795 58.3736 66.1844 58.3736 66.1844ZM40.2871 35.0608C40.2871 35.0608 41.9904 29.3346 45.6305 27.3688C49.2423 25.3712 59.5491 26.8686 59.9893 27.4254C60.4012 27.9841 63.9247 32.8582 63.2493 35.0308C62.6606 37.1451 40.2871 35.0608 40.2871 35.0608Z" fill="#C8DCEE"/>
<path id="Vector_40" d="M48.302 29.777C48.3311 29.7169 47.1856 31.0676 46.8055 30.7441C46.4236 30.4807 46.5412 29.777 46.6869 29.0415M58.9013 29.8053C58.9013 29.8053 59.4016 30.3622 59.6084 31.5079L58.9013 29.8053ZM62.3079 31.0676C62.2797 31.0375 62.7199 32.3598 61.926 32.6233C61.4558 32.7418 60.8688 32.2714 60.5171 31.7128L62.3079 31.0676ZM60.312 30.7441C60.312 30.7158 60.8106 32.7117 60.137 32.8584C59.665 32.9468 58.873 31.7128 58.4911 31.0957L60.312 30.7441ZM61.0458 29.3049C61.0458 29.2766 61.4277 30.5671 60.6938 30.8023C60.2519 30.979 59.2549 30.0404 58.873 29.4516L61.0458 29.3049ZM56.9937 29.5117C56.9937 29.5117 57.639 31.3025 57.6972 32.5065L56.9937 29.5117ZM58.6679 27.4258C58.6679 27.3975 59.1665 30.1873 58.4045 30.4506C57.9625 30.5973 57.5807 29.9805 57.2006 29.4234L58.6679 27.4258ZM58.461 30.4806C58.4044 30.4506 58.6678 33.0354 57.9625 33.2387C57.5223 33.3571 56.7585 32.3882 56.4368 31.8314L58.461 30.4806ZM56.4935 30.6857C56.4935 30.6556 56.5535 32.3298 55.9948 32.4483C55.5547 32.5633 55.1728 31.9781 54.7909 31.4494L56.4935 30.6857ZM56.672 27.6608C56.6119 27.6308 57.1405 30.4805 56.4368 30.7157C55.9648 30.8624 55.5547 30.3037 55.2028 29.6868L56.672 27.6608ZM54.9677 28.3079C54.9677 28.2779 55.5246 31.096 54.7609 31.331C54.2924 31.5077 53.793 30.8624 53.4403 30.2154L54.9677 28.3079ZM54.0573 27.8075C54.0573 27.7792 53.6754 30.5971 52.9118 30.6556C52.4132 30.6556 52.1179 29.8336 51.9721 29.1883L54.0573 27.8075ZM51.5893 28.3079C51.5893 28.2779 51.1499 31.0676 50.4747 31.126C49.9752 31.1844 49.711 30.3623 49.5641 29.687L51.5893 28.3079ZM47.9493 32.2414C47.9493 32.2132 47.2164 33.357 46.8337 33.0354C46.4519 32.7419 46.5694 31.978 46.7453 31.3311L47.9493 32.2414ZM44.7485 30.1571C44.7485 30.0986 43.6912 31.361 43.3095 31.0957C42.9295 30.7439 43.1338 30.0404 43.3405 29.3932L44.7485 30.1571ZM43.3978 31.9781C43.487 31.9481 42.3699 33.2387 41.9896 32.9468C41.5768 32.6234 41.872 31.8596 42.048 31.2143L43.3978 31.9781ZM46.6587 32.3882C46.6587 32.3599 45.4238 33.8572 45.042 33.5337C44.6619 33.2703 44.4842 32.4765 44.6619 31.8312L46.6587 32.3882ZM45.3947 30.9791C45.4238 30.9491 44.0731 32.6232 43.6914 32.3298C43.2513 31.9779 43.4872 31.2443 43.4872 31.1258L45.3947 30.9791ZM47.0697 30.8023C47.1272 30.7439 46.0408 32.2713 45.659 31.9779C45.2771 31.6845 45.3946 30.9491 45.5414 30.3038L47.0697 30.8023ZM46.5694 29.3934C46.5694 29.335 45.4238 30.6857 45.0419 30.4206C44.6618 30.0988 44.7776 29.3934 44.9835 28.688L46.5694 29.3934ZM49.5951 30.7441C49.5951 30.7158 48.4486 32.1248 48.0668 31.8314C47.6849 31.5079 47.8024 30.744 47.9783 30.0988L49.5951 30.7441Z" stroke="#C8DCEE" stroke-width="0.166965" stroke-miterlimit="3.864"/>
<path id="Vector_41" d="M46.5412 14.8875C46.5412 14.8875 46.7745 12.2162 52.6183 13.5086C54.1458 13.8605 56.23 14.7126 58.2561 16.0915L57.3155 16.21C60.0185 17.6173 58.461 25.7513 61.5159 29.6866L59.3431 27.6306C59.1363 30.3336 58.491 28.9528 57.6972 27.4838C57.6106 27.3688 57.8758 29.2164 57.1103 29.4232C56.5535 29.57 55.7315 28.2777 55.4679 27.4838C55.4679 27.3688 55.3194 29.3348 54.6741 29.4515C54.3214 29.5116 53.44 28.0725 53.029 27.4838C52.9999 27.3688 52.9999 29.3932 52.3536 29.5399C51.9135 29.6866 51.1497 28.5411 50.8272 27.8073C50.768 27.6606 50.5037 29.9216 49.595 30.0683C49.0664 30.1569 48.5661 28.8062 48.4485 28.3658C48.4194 28.189 47.6556 29.7766 46.1874 29.8914C45.688 29.9214 45.6297 28.7475 45.6297 28.3658C45.6297 28.189 44.7484 29.2162 43.3978 29.3346C43.1334 29.3346 43.487 28.8944 46.1301 26.84C48.0377 25.3107 49.7111 23.6083 49.3308 22.0225C48.5663 18.881 44.7776 18.1171 44.7776 18.1171C44.7776 18.1171 47.3339 17.6169 49.9461 18.9692C49.9461 18.9692 49.8284 16.855 48.5663 16.4447C46.6587 15.7981 46.5412 14.8875 46.5412 14.8875Z" fill="#C8DCEE"/>
<path id="Vector_42" d="M46.5412 14.8875C46.5412 14.8875 46.7745 12.2162 52.6183 13.5086C54.1458 13.8605 56.23 14.7126 58.2561 16.0915L57.3155 16.21C60.0185 17.6173 58.461 25.7513 61.5159 29.6866L59.3431 27.6306C59.1363 30.3336 58.491 28.9528 57.6972 27.4838C57.6106 27.3688 57.8758 29.2164 57.1103 29.4232C56.5536 29.57 55.7315 28.2777 55.4679 27.4838C55.4679 27.3688 55.3194 29.3348 54.6741 29.4515C54.3214 29.5116 53.44 28.0725 53.029 27.4838C52.9999 27.3688 52.9999 29.3932 52.3536 29.5399C51.9135 29.6866 51.1497 28.5411 50.8272 27.8073C50.768 27.6606 50.5037 29.9216 49.595 30.0683C49.0664 30.1569 48.5661 28.8062 48.4485 28.3658C48.4194 28.189 47.6556 29.7766 46.1874 29.8914C45.688 29.9214 45.6297 28.7475 45.6297 28.3658C45.6297 28.189 44.7484 29.2162 43.3978 29.3346C43.1334 29.3346 43.487 28.8944 46.1301 26.84C48.0377 25.3107 49.7111 23.6083 49.3308 22.0225C48.5663 18.881 44.7776 18.1171 44.7776 18.1171C44.7776 18.1171 47.3339 17.6169 49.9461 18.9692C49.9461 18.9692 49.8284 16.855 48.5663 16.4447C46.6587 15.7981 46.5412 14.8875 46.5412 14.8875Z" stroke="#C8DCEE" stroke-width="0.333931" stroke-miterlimit="3.864"/>
<path id="Vector_43" d="M49.7109 15.8562C49.7109 15.8562 49.7995 15.5343 50.6215 15.7696C51.5027 15.9446 52.3832 15.4743 53.3238 15.3877C53.3238 15.3877 52.0898 15.9445 54.8212 16.2982C54.8495 16.2982 54.2043 16.5616 52.9419 16.2097C52.9419 16.2097 52.8827 17.3536 51.8546 17.4419C51.0034 17.4419 50.6506 16.9734 50.3863 16.0912C50.3863 16.0914 50.3281 15.8562 49.7109 15.8562Z" fill="#C8DCEE"/>
<path id="Vector_44" d="M49.7109 15.8562C49.7109 15.8562 49.7995 15.5343 50.6215 15.7696C51.5027 15.9446 52.3832 15.4743 53.3238 15.3877C53.3238 15.3877 52.0898 15.9445 54.8212 16.2982C54.8495 16.2982 54.2043 16.5616 52.9419 16.2097C52.9419 16.2097 52.8827 17.3536 51.8546 17.4419C51.0034 17.4419 50.6506 16.9734 50.3863 16.0912C50.3863 16.0914 50.3281 15.8562 49.7109 15.8562V15.8562Z" stroke="#C8DCEE" stroke-width="0.0659616" stroke-miterlimit="3.864"/>
<path id="Vector_45" d="M56.1999 25.7231C56.1716 25.693 56.1716 27.4256 55.7313 27.4839C55.2027 27.4839 54.8208 26.8686 54.5574 26.2216M50.3569 20.6139C50.8272 21.3777 50.1812 22.3466 49.8875 22.3466C49.7991 22.3466 49.4765 21.9364 49.1238 21.3177L50.3569 20.6139ZM50.8272 22.3182C50.8563 23.1968 49.7993 23.7855 49.564 23.6088C49.4765 23.5788 49.4173 23.0501 49.4173 22.3466L50.8272 22.3182ZM50.5922 24.5792C50.6213 24.5473 49.4767 25.8998 49.0948 25.6364C48.7129 25.3111 48.8305 24.5792 48.9772 23.9322L50.5922 24.5792ZM47.8316 27.132C47.8316 27.1037 47.3339 27.544 47.1854 27.3972C46.8053 27.0437 47.1854 26.4867 47.3339 25.7832L47.8316 27.132ZM49.4766 27.369C49.5057 27.2789 48.3602 28.6597 47.9783 28.3662C47.5982 28.0728 47.714 27.369 47.8908 26.6336L49.4766 27.369ZM57.2288 18.3527C57.2005 18.3244 57.2005 20.1135 56.7285 20.1135C56.1999 20.1436 55.9647 19.675 55.9365 19.5849L57.2288 18.3527ZM59.2548 22.9334C59.1663 22.9033 59.4299 25.0177 58.9895 25.0762C58.4909 25.0762 57.8156 23.6972 57.7574 23.6087L59.2548 22.9334ZM59.0479 21.1708C59.0196 21.1424 59.2547 23.0501 58.7845 23.0501C58.2859 23.0801 58.1091 22.5214 58.0791 22.4348L59.0479 21.1708ZM58.7845 19.0865C58.7544 19.0281 58.7544 20.8191 58.2859 20.8191C57.8157 20.8792 57.4338 20.2322 57.1103 19.5851L58.7845 19.0865ZM54.9676 22.3182C54.9394 22.2863 54.9394 24.0789 54.4673 24.0789C53.9988 24.1073 53.7045 23.6688 53.6753 23.5503L54.9676 22.3182ZM56.4934 21.9363C56.4368 21.8762 56.4368 24.5474 55.7898 24.5474C55.0863 24.5794 54.9077 23.9322 54.791 23.8139L56.4934 21.9363ZM58.4609 20.6722C58.4043 20.6422 58.4043 22.4048 57.9623 22.4348C57.4938 22.4348 57.1102 21.818 56.7584 21.1708L58.4609 20.6722ZM57.7273 22.3464C57.6973 22.3181 57.6973 24.1071 57.2287 24.1071C56.7001 24.0789 56.4367 23.4902 56.3466 23.4318L57.7273 22.3464ZM56.9635 24.0505C56.9352 23.9905 56.9352 25.7512 56.4649 25.7832C55.9646 25.7832 55.5244 25.076 55.2327 24.3724L56.9635 24.0505ZM58.9895 25.0762C58.9011 24.9595 58.9011 27.6024 58.256 27.6308C57.494 27.6308 56.9638 26.7221 56.4934 25.7515L58.9895 25.0762Z" stroke="#C8DCEE" stroke-width="0.166965" stroke-miterlimit="3.864"/>
<path id="Vector_46" d="M50.8857 16.4451C50.8857 16.4735 51.2676 16.9737 51.7669 16.9737C52.2664 16.9737 52.6775 16.4135 52.6775 16.4451C52.6775 16.8553 52.2665 17.2071 51.7669 17.2071C51.2675 17.2071 50.8857 16.8553 50.8857 16.4451Z" fill="#C8DCEE"/>
<path id="Vector_47" d="M50.8857 16.4451C50.8857 16.4735 51.2676 16.9737 51.7669 16.9737C52.2664 16.9737 52.6775 16.4135 52.6775 16.4451C52.6775 16.8553 52.2665 17.2071 51.7669 17.2071C51.2675 17.2071 50.8857 16.8553 50.8857 16.4451Z" stroke="#C8DCEE" stroke-width="0.0659616" stroke-miterlimit="3.864"/>
<path id="Vector_48" d="M51.8795 16.1465C51.9661 16.0157 52.1261 15.9662 52.2349 16.0387C52.3409 16.1129 52.3577 16.2791 52.2684 16.4082C52.18 16.539 52.021 16.5869 51.914 16.5143C51.807 16.4418 51.7911 16.2775 51.8795 16.1465Z" fill="#C8DCEE"/>
<path id="Vector_49" d="M56.3464 25.7512C56.3464 25.7512 56.9633 27.6021 57.0518 28.7761M44.1021 16.3565C44.1021 16.3565 43.5151 16.4451 43.4868 17.0902L44.1021 16.3565ZM50.3277 18.1176C50.3277 18.1176 51.1206 20.6722 49.5056 19.3497C49.4765 19.3497 49.2413 19.1164 48.0373 18.8531L50.3277 18.1176ZM47.2736 14.8876C47.2736 14.8876 47.5671 15.3879 47.7138 15.4745C48.1549 15.7697 48.5951 15.8564 48.8594 15.9747L47.2736 14.8876ZM51.8842 26.8968C51.8842 26.8968 52.3537 28.1309 52.2662 29.0112L51.8842 26.8968ZM57.3752 23.9904C57.3752 23.9904 57.9906 25.2544 58.1089 26.6616L57.3752 23.9904Z" stroke="#C8DCEE" stroke-width="0.166965" stroke-miterlimit="3.864"/>
<path id="Vector_50" d="M52.0316 30.6853C52.0316 30.6853 57.1408 37.2035 65.3315 32.3294C65.5384 32.2128 73.9075 57.025 52.0316 67.2414C30.2143 57.025 38.5542 32.2128 38.7584 32.3294C46.9234 37.2035 52.0316 30.6853 52.0316 30.6853Z" fill="#C8DCEE"/>
<path id="Vector_51" d="M67.0634 42.4011H36.9971C37.1438 36.5883 38.6712 32.2411 38.7579 32.3294C46.9228 37.2035 52.0312 30.6853 52.0312 30.6853C52.0312 30.6853 57.1403 37.2035 65.3311 32.3294C65.4494 32.2411 66.9768 36.5883 67.0634 42.4011Z" fill="white"/>
<path id="Vector_52" d="M67.0634 42.4011H36.9971C37.1438 36.5883 38.6712 32.2411 38.7579 32.3294C46.9228 37.2035 52.0312 30.6853 52.0312 30.6853C52.0312 30.6853 57.1403 37.2035 65.3311 32.3294C65.4494 32.2411 66.9768 36.5883 67.0634 42.4011V42.4011Z" stroke="white" stroke-width="0.0659616" stroke-miterlimit="3.864"/>
<path id="Vector_53" d="M39.1401 54.3219V42.4011H41.4012V58.4622C40.4333 57.1416 39.7581 55.7326 39.1401 54.3219ZM43.8383 61.4588V42.4011H46.0703V63.5431C45.3065 62.8979 44.7196 62.3392 43.9868 61.6338L43.8383 61.4588ZM50.7684 66.5661C49.9463 66.156 49.3311 65.7157 48.5382 65.3056V42.4009H50.7684V66.5661ZM64.9513 54.3219V42.4011H62.7202V58.4322C63.6307 57.0533 64.3342 55.7326 64.9513 54.3219ZM60.2523 61.4588V42.4011H57.9913V63.5431C58.8433 62.8979 59.4302 62.3392 60.1055 61.6338L60.2523 61.4588ZM53.2939 66.5963C54.146 66.1843 54.8497 65.7158 55.5549 65.3056V42.401H53.2939V66.5963Z" fill="white"/>
<path id="Vector_54" d="M52.0316 30.6853C52.0316 30.6853 57.1408 37.2035 65.3315 32.3294C65.5384 32.2128 73.9075 57.025 52.0316 67.2414C30.2143 57.025 38.5542 32.2128 38.7584 32.3294C46.9234 37.2035 52.0316 30.6853 52.0316 30.6853Z" stroke="#C8DCEE" stroke-width="0.333931" stroke-miterlimit="3.864"/>
<path id="Vector_55" d="M106.118 33.3563L101.391 36.938L103.182 37.1448L93.522 51.592L94.1373 52.0623L103.799 37.4666L104.767 38.8774L106.118 33.3563Z" fill="#C8DCEE"/>
<path id="Vector_56" d="M106.118 33.3563L101.391 36.938L103.182 37.1448L93.522 51.592L94.1373 52.0623L103.799 37.4666L104.767 38.8774L106.118 33.3563Z" stroke="#C8DCEE" stroke-width="0.166965" stroke-miterlimit="3.864"/>
<path id="Vector_57" d="M106.676 38.2025L101.595 41.4041L103.388 41.7259L95.1074 52.091L95.6661 52.5895L103.945 42.1361L104.767 43.6334L106.676 38.2025Z" fill="#C8DCEE"/>
<path id="Vector_58" d="M106.676 38.2025L101.595 41.4041L103.388 41.7259L95.1074 52.091L95.6661 52.5895L103.945 42.1361L104.767 43.6334L106.676 38.2025Z" stroke="#C8DCEE" stroke-width="0.166965" stroke-miterlimit="3.864"/>
<path id="Vector_59" d="M100.773 33.4172L96.428 37.5859L98.2772 37.5576L93.375 47.3641L93.9618 47.8626L98.9526 37.821L99.9815 39.1434L100.773 33.4172Z" fill="#C8DCEE"/>
<path id="Vector_60" d="M100.773 33.4172L96.428 37.5859L98.2772 37.5576L93.375 47.3641L93.9618 47.8626L98.9526 37.821L99.9815 39.1434L100.773 33.4172Z" stroke="#C8DCEE" stroke-width="0.166965" stroke-miterlimit="3.864"/>
<path id="Vector_61" d="M100.746 37.3226L96.2822 41.2861H98.1032L94.168 48.2162L94.7266 48.6847L98.7203 41.6078L99.8056 42.9585L100.746 37.3226Z" fill="#C8DCEE"/>
<path id="Vector_62" d="M100.746 37.3226L96.2822 41.2861H98.1032L94.168 48.2162L94.7266 48.6847L98.7203 41.6078L99.8056 42.9585L100.746 37.3226Z" stroke="#C8DCEE" stroke-width="0.166965" stroke-miterlimit="3.864"/>
<path id="Vector_63" d="M107.644 42.5762L102.271 45.2493L104.032 45.7477L93.4053 56.4964L93.8437 57.1417L104.562 46.2198L105.236 47.8339L107.644 42.5762Z" fill="#C8DCEE"/>
<path id="Vector_64" d="M107.644 42.5762L102.271 45.2493L104.032 45.7477L93.4053 56.4964L93.8437 57.1417L104.562 46.2198L105.236 47.8339L107.644 42.5762Z" stroke="#C8DCEE" stroke-width="0.166965" stroke-miterlimit="3.864"/>
<path id="Vector_65" d="M96.0769 37.9973L92.1715 42.4896L93.9908 42.3128L84.0376 65.9512L84.5963 66.3313L94.6377 42.548L95.87 43.7219L96.0769 37.9973Z" fill="#C8DCEE"/>
<path id="Vector_66" d="M96.0769 37.9973L92.1715 42.4896L93.9908 42.3128L84.0376 65.9512L84.5963 66.3313L94.6377 42.548L95.87 43.7219L96.0769 37.9973Z" stroke="#C8DCEE" stroke-width="0.166965" stroke-miterlimit="3.864"/>
<path id="Vector_67" d="M96.1628 44.104L91.9357 48.3027L93.7867 48.2745L84.0669 65.9515L84.5955 66.3634L94.4019 48.598L95.5475 49.8302L96.1628 44.104Z" fill="#C8DCEE"/>
<path id="Vector_68" d="M96.1628 44.104L91.9357 48.3027L93.7867 48.2745L84.0669 65.9515L84.5955 66.3634L94.4019 48.598L95.5475 49.8302L96.1628 44.104Z" stroke="#C8DCEE" stroke-width="0.166965" stroke-miterlimit="3.864"/>
<path id="Vector_69" d="M101.595 45.7197L96.5765 48.9779L98.4239 49.3014L84.0952 65.9214L84.5656 66.4798L98.9844 49.6833L99.8046 51.1525L101.595 45.7197Z" fill="#C8DCEE"/>
<path id="Vector_70" d="M101.595 45.7197L96.5765 48.9779L98.4239 49.3014L84.0952 65.9214L84.5656 66.4798L98.9844 49.6833L99.8046 51.1525L101.595 45.7197Z" stroke="#C8DCEE" stroke-width="0.166965" stroke-miterlimit="3.864"/>
<path id="Vector_71" d="M91.3476 43.1649L87.9144 48.009L89.7052 47.6589L83.5972 65.8027L84.2424 66.1846L90.4088 47.8622L91.7012 48.8911L91.3476 43.1649Z" fill="#C8DCEE"/>
<path id="Vector_72" d="M91.3476 43.1649L87.9144 48.009L89.7052 47.6589L83.5972 65.8027L84.2424 66.1846L90.4088 47.8622L91.7012 48.8911L91.3476 43.1649Z" stroke="#C8DCEE" stroke-width="0.166965" stroke-miterlimit="3.864"/>
<path id="Vector_73" d="M96.3119 48.3022L91.6729 52.1209L93.4922 52.2376L84.0376 65.8626L84.5662 66.3629L94.1091 52.5893L95.108 53.9701L96.3119 48.3022Z" fill="#C8DCEE"/>
<path id="Vector_74" d="M96.3119 48.3022L91.6729 52.1209L93.4922 52.2376L84.0376 65.8626L84.5662 66.3629L94.1091 52.5893L95.108 53.9701L96.3119 48.3022Z" stroke="#C8DCEE" stroke-width="0.166965" stroke-miterlimit="3.864"/>
<path id="Vector_75" d="M105.149 51.0338L99.513 53.0899L101.245 53.8536L84.5957 66.5381L84.9174 67.1834L101.714 54.3521L102.154 55.9962L105.149 51.0338Z" fill="#C8DCEE"/>
<path id="Vector_76" d="M105.149 51.0338L99.513 53.0899L101.245 53.8536L84.5957 66.5381L84.9174 67.1834L101.714 54.3521L102.154 55.9962L105.149 51.0338Z" stroke="#C8DCEE" stroke-width="0.166965" stroke-miterlimit="3.864"/>
<path id="Vector_77" d="M87.9727 45.2191L85.183 50.505L86.9156 49.9181L83.8022 65.7741L84.4175 66.0677L87.6191 49.9482L89.0582 50.917L87.9727 45.2191Z" fill="#C8DCEE"/>
<path id="Vector_78" d="M87.9727 45.2191L85.183 50.505L86.9156 49.9181L83.8022 65.7741L84.4175 66.0677L87.6191 49.9482L89.0582 50.917L87.9727 45.2191Z" stroke="#C8DCEE" stroke-width="0.166965" stroke-miterlimit="3.864"/>
<path id="Vector_79" d="M97.427 53.8818L92.111 56.6434L93.9037 57.1718L84.2422 66.3029L84.9776 66.5662L94.4623 57.582L95.0475 59.1978L97.427 53.8818Z" fill="#C8DCEE"/>
<path id="Vector_80" d="M97.427 53.8818L92.111 56.6434L93.9037 57.1718L84.2422 66.3029L84.9776 66.5662L94.4623 57.582L95.0475 59.1978L97.427 53.8818Z" stroke="#C8DCEE" stroke-width="0.166965" stroke-miterlimit="3.864"/>
<path id="Vector_81" d="M83.9788 65.1593L79.2232 70.0032L77.1956 69.9732L69.8252 76.8733L71.7647 76.9033L71.0575 77.7554L72.3214 78.0471L72.1146 78.4007L72.7899 78.8409L72.4081 80.0731L74.7876 79.9865L75.2862 80.1916L75.7582 81.5723L77.4589 81.2205L77.1956 81.8056L78.0477 82.101L78.3411 81.4839L78.8414 82.366L80.3954 81.6306L80.9239 82.0709L81.6293 81.8374L82.8333 82.5994L84.4492 73.8201L83.3319 72.3528L84.4774 65.6561L83.9788 65.1593Z" fill="#C8DCEE"/>
<path id="Vector_82" d="M71.7046 76.903L77.9595 70.7951H79.2517L83.2737 66.5381M79.8668 72.9394L81.7762 72.0289L82.9217 69.621L82.1279 69.2391L79.8668 72.9394ZM81.5127 81.8371L83.3319 72.4106L81.5127 81.8371ZM80.4272 81.6303L83.0101 71.0601L80.4272 81.6303ZM78.8697 82.3657L79.7803 78.2535L78.8697 82.3657ZM78.3129 81.5119L83.4204 70.0031L78.3129 81.5119ZM77.4589 81.2485L82.9218 69.5911L77.4589 81.2485ZM72.79 78.8406L73.644 79.9861L76.5803 76.8728L72.79 78.8406ZM75.7866 81.5119L79.8668 72.9394L75.7866 81.5119ZM74.6693 79.9579L81.4244 69.2977L74.6693 79.9579ZM75.3162 80.2796L83.3319 67.3015L75.3162 80.2796ZM72.79 78.8406L83.392 67.1832L72.79 78.8406ZM79.2517 70.7949L72.3215 78.1368L79.2517 70.7949ZM79.2233 70.0029L78.3411 70.7949L79.2233 70.0029Z" stroke="#C8DCEE" stroke-width="0.166965" stroke-miterlimit="50"/>
<path id="Vector_83" d="M9.38037 46.4622C9.38037 45.854 9.87449 45.359 10.4836 45.359C11.0935 45.359 11.586 45.8541 11.586 46.4622C11.5861 46.607 11.5577 46.7504 11.5024 46.8841C11.447 47.0179 11.3658 47.1394 11.2634 47.2418C11.161 47.3441 11.0394 47.4252 10.9056 47.4804C10.7718 47.5357 10.6283 47.5639 10.4836 47.5636C9.87449 47.5636 9.38037 47.0721 9.38037 46.4622ZM15.0994 56.1219C15.0994 55.3776 15.7022 54.7732 16.4466 54.7732C17.19 54.7732 17.7947 55.3778 17.7947 56.1219C17.7947 56.8661 17.19 57.4708 16.4466 57.4708C15.7023 57.4708 15.0994 56.8662 15.0994 56.1219Z" fill="#C8DCEE"/>
<path id="Vector_84" d="M29.3625 80.6619C30.3313 80.7486 33.4446 72.9681 19.5543 62.3396C18.8215 61.8694 19.907 58.6695 25.0473 57.2586C28.3345 56.3181 27.4242 53.942 29.627 52.2378C29.627 52.2378 26.3979 51.1806 23.344 53.8819C23.344 53.8819 24.0193 51.8559 23.6658 50.4169C23.3724 49.3015 24.0477 48.2742 24.4296 48.1559C24.4296 48.1559 18.9686 47.0705 17.9397 60.9006C17.9397 61.0758 14.0646 58.9612 17.2953 54.7927C17.4421 54.5859 18.5859 52.1798 18.2933 49.0664C18.1465 47.6592 17.5287 47.0705 18.1174 45.2195C18.1174 45.2195 15.3278 48.6564 14.7391 49.8019C12.9491 53.2669 13.6245 56.1434 14.3281 57.9643C14.3281 57.9643 12.303 55.8499 12.6848 52.1213C12.6848 51.9446 12.2738 51.6812 12.0979 51.8561C11.9522 52.0329 11.8036 53.7354 12.0679 54.4107C12.0679 54.4107 10.5121 52.7383 11.8036 50.9458C12.0095 50.7105 14.6818 49.6835 14.5058 44.5742C14.5058 44.309 14.5642 41.226 15.2103 40.2872C15.2103 40.2872 10.6298 41.7546 10.8639 46.2484C10.8948 47.0705 11.5692 49.5667 10.5413 51.2108C10.5413 51.2108 9.71928 48.5979 10.0418 47.5991C10.1303 47.394 9.92421 47.2773 9.77748 47.2773C9.77748 47.2773 9.27802 47.6592 9.27802 48.1559C9.27802 48.1559 7.80968 46.6303 10.4836 42.9301C10.5702 42.755 12.1852 40.9041 11.539 36.5887C11.4515 36.1767 10.9229 34.621 11.8334 33.2385C11.8334 33.2385 9.36627 33.7671 8.83766 36.5286C8.83766 36.5286 8.48674 34.9426 7.69382 33.9739C7.57624 33.7988 7.04753 33.1235 7.13416 31.8312C7.13416 31.8312 4.63964 33.5338 5.31498 39.1431C5.31498 39.1431 3.66895 37.9075 2.7896 37.4671C1.96753 37.057 1.58565 36.9385 1.02789 35.8812C1.02789 35.8812 -0.207013 43.8403 7.42951 46.1013C7.57615 46.1296 7.42951 46.8349 7.86887 47.5103C7.86887 47.5103 6.81165 46.3063 4.13954 46.073C3.64008 45.9828 2.67129 45.7194 1.58583 44.3087C1.58583 44.3087 0.32178 47.3936 3.70018 49.1844C3.70018 49.1844 1.52573 49.7412 0 48.5976C0 48.5976 0.732811 54.382 8.77919 53.6466C8.89686 53.6466 11.6274 53.8234 11.5689 56.0262C11.5689 56.0544 9.48367 55.1139 6.5764 55.4092C6.34124 55.4677 2.26098 55.6144 1.64312 54.5853C1.64312 54.5853 1.58565 57.0533 4.05111 57.6402C4.05111 57.6402 3.02485 58.6974 0.881167 58.6974C0.881167 58.6974 3.11147 62.0441 10.3943 59.7263C10.57 59.6963 13.7991 57.2583 15.9143 60.5767C15.9143 60.5767 10.6876 61.3988 8.6025 63.9235C8.19147 64.4236 7.95812 65.5976 5.28583 66.8316C5.28583 66.8316 7.95794 68.1238 11.4231 66.9483C11.4231 66.9483 9.13112 69.6212 10.57 74.1135C10.57 74.1135 11.5689 72.3227 13.7416 71.1771C14.3879 70.7952 16.0894 69.0344 16.5022 65.2158C16.5313 64.7774 17.4418 63.1617 20.1723 64.7173C22.8437 66.2447 28.7456 72.1759 28.3347 77.2834C28.1294 78.841 27.9526 80.4551 29.3625 80.6619Z" fill="#C8DCEE"/>
<path id="Vector_85" d="M23.3445 53.8817C23.3445 53.8817 23.1376 55.4676 19.4392 60.0481M18.793 61.0752C18.793 61.0752 19.4393 54.4987 22.7265 49.683L18.793 61.0752ZM19.7902 59.8147C19.7902 59.8147 23.9304 54.0886 27.5732 52.9714L19.7902 59.8147Z" stroke="#C8DCEE" stroke-width="0.234988" stroke-miterlimit="50"/>
<path id="Vector_86" d="M17.2427 58.6338C17.2427 57.8879 17.8474 57.285 18.5915 57.285C19.3349 57.285 19.9378 57.8879 19.9378 58.6338C19.9378 59.3782 19.3349 59.981 18.5915 59.981C17.8474 59.981 17.2427 59.378 17.2427 58.6338Z" fill="#C8DCEE"/>
<path id="Vector_87" d="M18.2026 61.0226C18.2026 60.2448 18.8345 59.6138 19.6134 59.6138C20.3913 59.6138 21.0216 60.2449 21.0216 61.0226C21.0216 61.8005 20.3913 62.4316 19.6134 62.4316C18.8345 62.4318 18.2026 61.8006 18.2026 61.0226Z" fill="#C8DCEE"/>
<path id="Vector_88" d="M17.2358 47.599C17.0306 47.981 13.3013 52.6781 15.8268 59.4897" stroke="#C8DCEE" stroke-width="0.234988" stroke-miterlimit="50"/>
<path id="Vector_89" d="M12.0771 54.9992C12.0771 54.2655 12.6712 53.6697 13.4039 53.6697C14.1367 53.6697 14.7326 54.2654 14.7326 54.9992C14.7326 55.7328 14.1368 56.3268 13.4039 56.3268C12.6712 56.3268 12.0771 55.7328 12.0771 54.9992Z" fill="#C8DCEE"/>
<path id="Vector_90" d="M13.6253 42.5481C13.4785 42.93 12.333 44.0455 12.6565 46.9819C12.9499 49.8882 11.5401 51.0922 11.0415 51.4741" stroke="#C8DCEE" stroke-width="0.234988" stroke-miterlimit="50"/>
<path id="Vector_91" d="M10.9126 51.5464C10.9126 50.825 11.4969 50.2399 12.2198 50.2399C12.942 50.2399 13.5264 50.825 13.5264 51.5464C13.5264 52.2694 12.9421 52.8529 12.2198 52.8529C11.4969 52.853 10.9126 52.2694 10.9126 51.5464Z" fill="#C8DCEE"/>
<path id="Vector_92" d="M8.83727 36.5283C8.86633 36.7935 9.51261 39.318 8.984 41.5508C8.51449 43.8118 8.07341 45.3658 8.36777 46.7484M1.78955 37.9391C1.90713 38.3793 2.55332 40.0217 4.43252 41.2257C6.28256 42.3731 6.72283 43.7803 6.9579 44.9559L1.78955 37.9391ZM9.16168 39.1996C9.2483 38.7311 9.27736 37.0288 10.4231 35.5314L9.16168 39.1996Z" stroke="#C8DCEE" stroke-width="0.234988" stroke-miterlimit="50"/>
<path id="Vector_93" d="M5.31494 39.1432C5.31494 39.1432 7.86865 41.1693 7.34004 44.7793" stroke="#C8DCEE" stroke-width="0.234988" stroke-miterlimit="3.864"/>
<path id="Vector_94" d="M5.50098 44.6745C5.50098 43.9585 6.08082 43.3787 6.7977 43.3787C7.51458 43.3787 8.09352 43.9585 8.09352 44.6745C8.09352 45.3923 7.51458 45.9703 6.7977 45.9703C6.08082 45.9703 5.50098 45.3923 5.50098 44.6745Z" fill="#C8DCEE"/>
<path id="Vector_95" d="M7.43001 43.2833C7.43001 43.2833 7.57673 39.965 6.98802 38.2324C6.37278 36.5563 6.31268 36.2064 6.75467 34.1803M2.84766 46.5698C3.81834 47.4803 5.07959 48.8911 7.48757 49.4195L2.84766 46.5698ZM3.61152 49.2428C4.64041 49.1544 8.75162 48.8027 10.3657 52.5029L3.61152 49.2428Z" stroke="#C8DCEE" stroke-width="0.234988" stroke-miterlimit="50"/>
<path id="Vector_96" d="M5.88916 49.3417C5.88916 48.6647 6.43723 48.1166 7.11429 48.1166C7.79126 48.1166 8.34032 48.6647 8.34032 49.3417C8.34032 50.0187 7.79144 50.5668 7.11429 50.5668C6.43714 50.5668 5.88916 50.0188 5.88916 49.3417Z" fill="#C8DCEE"/>
<path id="Vector_97" d="M7.75198 47.4521C8.10544 48.0391 9.27843 48.6562 9.66041 50.5052M2.64355 50.447C3.90507 51.3275 7.48767 50.0069 10.7484 53.5L2.64355 50.447Z" stroke="#C8DCEE" stroke-width="0.234988" stroke-miterlimit="50"/>
<path id="Vector_98" d="M5.41992 51.0356C5.41992 50.3479 5.97768 49.791 6.6655 49.791C7.35397 49.791 7.911 50.3479 7.911 51.0356C7.911 51.7234 7.35415 52.2821 6.6655 52.2821C5.97768 52.2821 5.41992 51.7234 5.41992 51.0356Z" fill="#C8DCEE"/>
<path id="Vector_99" d="M4.02197 57.7005C5.60789 56.9066 8.77938 54.6173 13.8301 58.2291M4.08208 58.9329C5.19659 59.1681 7.45785 56.4968 11.8916 58.0223L4.08208 58.9329Z" stroke="#C8DCEE" stroke-width="0.234988" stroke-miterlimit="50"/>
<path id="Vector_100" d="M10.1572 58.7756C10.1572 58.0667 10.7325 57.4904 11.4424 57.4904C12.1539 57.4904 12.7295 58.0667 12.7295 58.7756C12.7295 59.4863 12.1541 60.0626 11.4424 60.0626C10.7325 60.0626 10.1572 59.4863 10.1572 58.7756Z" fill="#C8DCEE"/>
<path id="Vector_101" d="M7.75146 66.1563C9.63075 65.7744 10.0418 62.4261 17.3828 61.7225" stroke="#C8DCEE" stroke-width="0.234988" stroke-miterlimit="50"/>
<path id="Vector_102" d="M11.3828 62.5146C11.3828 61.781 11.9768 61.1869 12.7105 61.1869C13.4433 61.1869 14.0372 61.7809 14.0372 62.5146C14.0372 63.2465 13.4432 63.8404 12.7105 63.8404C11.9768 63.8404 11.3828 63.2465 11.3828 62.5146Z" fill="#C8DCEE"/>
<path id="Vector_103" d="M13.0771 61.3902C13.0771 60.6566 13.6711 60.0625 14.4048 60.0625C15.1376 60.0625 15.7316 60.6566 15.7316 61.3902C15.7316 62.1221 15.1376 62.7179 14.4048 62.7179C13.671 62.7179 13.0771 62.1221 13.0771 61.3902Z" fill="#C8DCEE"/>
<path id="Vector_104" d="M11.4233 66.978C14.4464 66.0374 14.9458 61.5754 18.204 62.4258C18.204 62.4258 14.7701 63.6898 13.2133 67.4766C11.5692 71.265 12.1561 70.0312 11.51 71.442" stroke="#C8DCEE" stroke-width="0.234988" stroke-miterlimit="50"/>
<path id="Vector_105" d="M8.19678 54.0992C8.19678 53.3762 8.78105 52.7926 9.504 52.7926C10.2244 52.7926 10.8106 53.376 10.8106 54.0992C10.8106 54.8224 10.2245 55.4057 9.504 55.4057C8.78105 55.4057 8.19678 54.8222 8.19678 54.0992Z" fill="#C8DCEE"/>
<path id="Vector_106" d="M85.241 66.1843C85.241 66.1843 85.241 62.7194 88.4108 63.955C88.9111 64.1884 91.2324 65.1872 88.4428 67.5067C88.236 67.7118 90.2902 70.5597 86.3285 70.7949C85.9465 70.825 84.5358 73.5564 83.2736 71.3817C83.0384 71.06 82.1281 71.1484 82.4516 69.9729C82.6282 69.5026 82.1882 67.4482 84.1541 67.7118C84.4772 67.7418 83.3317 66.6264 85.241 66.1843Z" fill="#C8DCEE"/>
<path id="Vector_107" d="M84.0376 65.1592C84.0376 65.1592 84.7129 64.4521 85.7118 64.3053C86.8272 64.1302 87.6192 64.4237 87.2976 65.1874C87.1209 65.6559 86.5338 65.4226 85.8286 65.3059C84.743 65.069 84.0376 65.1592 84.0376 65.1592Z" fill="#C8DCEE"/>
<path id="Vector_108" d="M84.0376 65.1592C84.0376 65.1592 84.7129 64.4521 85.7118 64.3053C86.8272 64.1302 87.6192 64.4237 87.2976 65.1874C87.1209 65.6559 86.5338 65.4226 85.8286 65.3059C84.743 65.069 84.0376 65.1592 84.0376 65.1592Z" stroke="#C8DCEE" stroke-width="0.234988" stroke-miterlimit="3.864"/>
<path id="Vector_109" d="M83.8325 65.1594C83.8325 65.1594 84.9781 65.4513 85.5067 66.3034C86.1219 67.2421 85.2999 67.6841 85.0948 67.6841C84.7429 67.5674 84.5662 67.624 84.4177 66.8601C84.1845 65.8029 83.8325 65.1594 83.8325 65.1594Z" fill="#C8DCEE"/>
<path id="Vector_110" d="M83.8325 65.1594C83.8325 65.1594 84.9781 65.4513 85.5067 66.3034C86.1219 67.2421 85.2999 67.6841 85.0948 67.6841C84.7429 67.5674 84.5662 67.624 84.4177 66.8601C84.1845 65.8029 83.8325 65.1594 83.8325 65.1594V65.1594Z" stroke="#C8DCEE" stroke-width="0.234988" stroke-miterlimit="3.864"/>
<path id="Vector_111" d="M82.1879 66.745C82.1879 66.745 81.5711 68.2405 82.3046 68.8877C83.0684 69.6496 83.6853 68.9743 83.6853 68.8276C83.6853 68.4776 83.802 68.2408 83.0685 67.9489C82.1278 67.507 82.1879 66.745 82.1879 66.745Z" fill="#C8DCEE"/>
<path id="Vector_112" d="M79.7505 67.4765C79.7505 67.4765 79.8389 66.7127 80.6309 66.5378M82.1883 66.7446C82.1883 66.7446 81.5715 68.2401 82.305 68.8873C83.0688 69.6492 83.6857 68.9739 83.6857 68.8272C83.6857 68.4772 83.8024 68.2404 83.0689 67.9485C82.1282 67.5066 82.1883 66.7446 82.1883 66.7446V66.7446ZM82.7753 61.282C82.4518 61.0752 79.8389 62.1624 81.0428 64.335C81.2779 64.777 82.1282 64.9519 82.7169 64.9519L82.7753 61.282ZM86.769 66.6845C86.769 66.6845 88.9117 66.3309 88.1479 68.2119L86.769 66.6845ZM85.0065 68.4771C85.0065 68.4771 87.3859 68.5922 86.2686 70.8249L85.0065 68.4771ZM84.1543 67.6833C84.1543 67.6833 85.2998 68.1234 85.0648 69.2673L84.1543 67.6833ZM83.1571 71.2953C83.1571 71.2953 84.4176 71.4137 84.4494 70.2664L83.1571 71.2953ZM85.2998 66.1842C85.2998 66.1842 86.7689 65.6875 86.9158 67.3598L85.2998 66.1842ZM80.1323 63.8948C80.1323 63.8948 79.8388 64.5701 80.1323 65.0988V63.8948Z" stroke="#C8DCEE" stroke-width="0.234988" stroke-miterlimit="3.864"/>
<path id="Vector_113" d="M83.0683 65.8027C83.0683 65.8027 81.6594 65.1875 81.746 64.2487C81.746 63.1014 82.6565 63.1915 82.8032 63.3082C83.0101 63.5734 83.2134 63.6901 82.9217 64.3936C82.5697 65.3342 83.0683 65.8027 83.0683 65.8027Z" fill="#C8DCEE"/>
<path id="Vector_114" d="M83.0683 65.8027C83.0683 65.8027 81.6594 65.1875 81.746 64.2487C81.746 63.1014 82.6565 63.1915 82.8032 63.3082C83.0101 63.5734 83.2134 63.6901 82.9217 64.3936C82.5697 65.3342 83.0683 65.8027 83.0683 65.8027Z" stroke="#C8DCEE" stroke-width="0.234988" stroke-miterlimit="3.864"/>
<path id="Vector_115" d="M21.0535 65.8027C21.0535 65.8027 20.6115 61.8407 17.2951 63.6299C16.7956 63.8651 14.4461 65.1592 17.2641 67.4768C17.4418 67.6837 15.3566 70.5017 19.3502 70.7669C19.7029 70.7952 21.111 73.4965 22.4617 71.3237C22.6084 71.0303 23.519 71.0603 23.1681 69.8847C23.0795 69.4747 23.4898 67.3886 21.4929 67.6838C21.2002 67.712 22.4924 66.6848 21.0535 65.8027Z" fill="#C8DCEE"/>
<path id="Vector_116" d="M21.3756 64.5124C21.3756 64.5124 20.4961 63.9237 19.5547 63.9237C18.4402 63.9237 17.6463 64.4239 18.1174 65.0992C18.4109 65.5413 18.8794 65.1878 19.6431 64.9225C20.5828 64.5708 21.3756 64.5124 21.3756 64.5124Z" fill="#C8DCEE"/>
<path id="Vector_117" d="M21.3756 64.5124C21.3756 64.5124 20.4961 63.9237 19.5547 63.9237C18.4402 63.9237 17.6463 64.4239 18.1174 65.0992C18.4109 65.5413 18.8794 65.1878 19.6431 64.9225C20.5828 64.5708 21.3756 64.5124 21.3756 64.5124V64.5124Z" stroke="#C8DCEE" stroke-width="0.234988" stroke-miterlimit="3.864"/>
<path id="Vector_118" d="M21.8161 65.0994C21.8161 65.0994 20.6723 65.4228 20.2011 66.2448C19.5859 67.2136 20.3479 67.6238 20.5546 67.6238C20.8765 67.5071 21.1115 67.5672 21.2299 66.8317C21.4933 65.7744 21.8161 65.0994 21.8161 65.0994Z" fill="#C8DCEE"/>
<path id="Vector_119" d="M21.8161 65.0994C21.8161 65.0994 20.6723 65.4228 20.2011 66.2448C19.5859 67.2136 20.3479 67.6238 20.5546 67.6238C20.8765 67.5071 21.1115 67.5672 21.2299 66.8317C21.4933 65.7744 21.8161 65.0994 21.8161 65.0994Z" stroke="#C8DCEE" stroke-width="0.234988" stroke-miterlimit="3.864"/>
<path id="Vector_120" d="M23.4894 66.7131C23.4894 66.7131 24.0472 68.2122 23.3718 68.8574C22.5788 69.6212 21.9929 68.9159 21.9636 68.739C21.9636 68.4455 21.9326 68.2122 22.608 67.8885C23.5185 67.4767 23.4894 66.7131 23.4894 66.7131Z" fill="#C8DCEE"/>
<path id="Vector_121" d="M23.4894 66.7131C23.4894 66.7131 24.0472 68.2122 23.3718 68.8574C22.5788 69.6212 21.9929 68.9159 21.9636 68.739C21.9636 68.4455 21.9326 68.2122 22.608 67.8885C23.5185 67.4767 23.4894 66.7131 23.4894 66.7131V66.7131Z" stroke="#C8DCEE" stroke-width="0.234988" stroke-miterlimit="3.864"/>
<path id="Vector_122" d="M22.6396 65.4224C22.6396 65.4224 23.6369 64.1884 23.1373 63.3081C22.6396 62.2792 21.8759 62.7795 21.7585 63.0147C21.7 63.2799 21.5826 63.5433 22.1404 63.9552C22.8731 64.6586 22.6396 65.4224 22.6396 65.4224Z" fill="#C8DCEE"/>
<path id="Vector_123" d="M20.408 66.156C20.408 66.156 18.9106 65.6557 18.7639 67.3299M22.6399 65.4224C22.6399 65.4224 23.6371 64.1884 23.1376 63.3081C22.6399 62.2792 21.8761 62.7795 21.7587 63.0147C21.7003 63.2799 21.5829 63.5433 22.1406 63.9552C22.8734 64.6586 22.6399 65.4224 22.6399 65.4224V65.4224ZM25.5163 63.8649C25.5163 63.8649 25.8407 64.5402 25.5455 65.0689L25.5163 63.8649ZM25.9566 67.4485C25.9566 67.4485 25.8099 66.6847 25.0169 66.4797L25.9566 67.4485ZM20.6724 68.4454C20.6724 68.4454 18.2644 68.5339 19.4082 70.7949L20.6724 68.4454ZM21.4934 67.6234C21.4934 67.6234 20.408 68.0954 20.583 69.2392L21.4934 67.6234ZM22.5224 71.2653C22.5224 71.2653 21.2301 71.3819 21.2301 70.2381L22.5224 71.2653ZM18.8796 66.6264C18.8796 66.6264 17.2726 66.0022 17.2646 67.4768L18.8796 66.6264Z" stroke="#C8DCEE" stroke-width="0.234988" stroke-miterlimit="3.864"/>
</g>
<g id="Group_2">
<g id="Group_3">
<g id="Group_4">
<g id="Group_5">
<g id="Group_6">
<g id="Group_7">
<g id="Group_8">
<path id="Vector_124" d="M48.5657 16.4451C46.8049 15.9748 46.5406 14.8876 46.5406 14.8876C46.4513 15.0343 40.55 14.4474 43.8685 20.5253C43.8685 20.5253 44.2194 16.4451 49.9456 18.9696C49.9454 18.9696 49.7412 16.7085 48.5657 16.4451Z" fill="#C8DCEE"/>
<path id="Vector_125" d="M48.5657 16.4451C46.8049 15.9748 46.5406 14.8876 46.5406 14.8876C46.4513 15.0343 40.55 14.4474 43.8685 20.5253C43.8685 20.5253 44.2194 16.4451 49.9456 18.9696C49.9454 18.9696 49.7412 16.7085 48.5657 16.4451V16.4451Z" stroke="#C8DCEE" stroke-width="0.234988" stroke-miterlimit="3.864"/>
</g>
</g>
</g>
</g>
</g>
</g>
</g>
</g>
</svg>
