<svg width="58" height="58" viewBox="0 0 58 58" fill="none" xmlns="http://www.w3.org/2000/svg">
	<path opacity="0.55" d="M29 58C13.0197 58 0 44.9659 0 29C0 13.0022 13.0197 0 29 0C44.9802 0 57.9999 13.0341 57.9999 29C58.0318 44.9659 45.012 58 29 58ZM29 3.79231C15.1207 3.79231 3.81997 15.1055 3.81997 29C3.81997 42.8945 15.1207 54.2077 29 54.2077C42.8792 54.2077 54.18 42.8945 54.18 29C54.18 15.1055 42.8792 3.79231 29 3.79231Z" fill="white"/>
	<path d="M22 17L42 28.9877L22 41V17Z" fill="#E6C08F"/>
</svg>
