<svg width="36" height="36" viewBox="0 0 36 36" fill="none" xmlns="http://www.w3.org/2000/svg">
	<circle cx="18" cy="18" r="18" fill="#E6C08F"/>
	<path d="M24.8961 25.0434C24.6567 25.0434 24.4172 24.9472 24.2416 24.7706L10.4493 10.9682C10.082 10.6151 10.082 10.0213 10.4493 9.66819C10.8164 9.29908 11.3911 9.29908 11.7583 9.66819L25.5507 23.4546C25.9178 23.8237 25.9178 24.4015 25.5507 24.7707C25.3749 24.9473 25.1356 25.0435 24.8961 25.0435V25.0434Z" fill="#1E1E1E"/>
	<path d="M11.0985 25.0435C10.8589 25.0435 10.6192 24.9473 10.4434 24.7709C10.076 24.402 10.092 23.8246 10.4434 23.4556L24.2463 9.66204C24.6137 9.29317 25.1889 9.30918 25.5564 9.66204C25.9238 10.0309 25.9079 10.6083 25.5564 10.9773L11.7535 24.7709C11.5618 24.9473 11.3382 25.0435 11.0985 25.0435Z" fill="#1E1E1E"/>
</svg>
